<?xml version="1.0" standalone="no"?>
<!DOCTYPE svg PUBLIC "-//W3C//DTD SVG 1.1//EN" "http://www.w3.org/Graphics/SVG/1.1/DTD/svg11.dtd" >
<!--
2013-9-30: Created.
-->
<svg>
<metadata>
Created by iconfont
</metadata>
<defs>

<font id="idpicon" horiz-adv-x="1024" >
  <font-face
    font-family="idpicon"
    font-weight="500"
    font-stretch="normal"
    units-per-em="1024"
    ascent="896"
    descent="-128"
  />
    <missing-glyph />
    
    <glyph glyph-name="x" unicode="x" horiz-adv-x="1001"
d="M281 543q-27 -1 -53 -1h-83q-18 0 -36.5 -6t-32.5 -18.5t-23 -32t-9 -45.5v-76h912v41q0 16 -0.5 30t-0.5 18q0 13 -5 29t-17 29.5t-31.5 22.5t-49.5 9h-133v-97h-438v97zM955 310v-52q0 -23 0.5 -52t0.5 -58t-10.5 -47.5t-26 -30t-33 -16t-31.5 -4.5q-14 -1 -29.5 -0.5
t-29.5 0.5h-32l-45 128h-439l-44 -128h-29h-34q-20 0 -45 1q-25 0 -41 9.5t-25.5 23t-13.5 29.5t-4 30v167h911zM163 247q-12 0 -21 -8.5t-9 -21.5t9 -21.5t21 -8.5q13 0 22 8.5t9 21.5t-9 21.5t-22 8.5zM316 123q-8 -26 -14 -48q-5 -19 -10.5 -37t-7.5 -25t-3 -15t1 -14.5
t9.5 -10.5t21.5 -4h37h67h81h80h64h36q23 0 34 12t2 38q-5 13 -9.5 30.5t-9.5 34.5q-5 19 -11 39h-368zM336 498v228q0 11 2.5 23t10 21.5t20.5 15.5t34 6h188q31 0 51.5 -14.5t20.5 -52.5v-227h-327z" />
    

    
    <glyph glyph-name="qq" unicode="&#58888;" d="M537.6-102.4v0c-12.8 0-19.2 0-25.6 0s-12.8 0-19.2 0h-6.4c-6.4 0-19.2 0-25.6-6.4-25.6-25.6-70.4-38.4-128-38.4-38.4 0-70.4 6.4-102.4 19.2-25.6 12.8-38.4 25.6-38.4 44.8 0 19.2 12.8 32 44.8 44.8 19.2 6.4 25.6 12.8 25.6 25.6 0 12.8 0 25.6-6.4 32-12.8 12.8-19.2 32-32 44.8-6.4 12.8-19.2 19.2-32 19.2h0c-12.8 0-19.2-6.4-32-12.8-12.8-12.8-19.2-19.2-25.6-19.2v0c-6.4 0-12.8 19.2-12.8 51.2s6.4 70.4 12.8 108.8c12.8 38.4 32 70.4 64 102.4 6.4 6.4 12.8 19.2 12.8 32 0 6.4 0 6.4 0 12.8 0 19.2 6.4 38.4 19.2 57.6 6.4 6.4 6.4 12.8 6.4 19.2 0 0 0 6.4 0 6.4 0 76.8 25.6 140.8 83.2 198.4 51.2 57.6 115.2 83.2 192 83.2 76.8 0 140.8-25.6 198.4-83.2 51.2-57.6 83.2-121.6 83.2-198.4 0 0 0 0 0-6.4 0-6.4 0-12.8 6.4-19.2 12.8-19.2 19.2-38.4 19.2-57.6 0-6.4 0-6.4 0-12.8 0-12.8 0-25.6 12.8-32 32-32 51.2-64 64-102.4 12.8-38.4 19.2-76.8 12.8-108.8 0-32-6.4-44.8-19.2-51.2-6.4 0-12.8 6.4-25.6 19.2-6.4 6.4-19.2 12.8-32 12.8h-6.4c-12.8 0-25.6-6.4-32-19.2-6.4-19.2-19.2-32-32-44.8-6.4-6.4-12.8-19.2-6.4-32 0-12.8 12.8-19.2 19.2-25.6 32-12.8 44.8-25.6 44.8-44.8 0-19.2-12.8-32-38.4-44.8-25.6-12.8-64-19.2-102.4-19.2-57.6 0-96 12.8-128 38.4 6.4 0-6.4 6.4-12.8 6.4zM684.8-224c64 0 115.2 12.8 153.6 38.4s64 57.6 64 102.4c0 25.6-6.4 44.8-19.2 64 6.4 0 19.2 0 25.6 6.4 38.4 12.8 57.6 44.8 64 96 6.4 44.8 0 96-19.2 153.6-12.8 44.8-38.4 83.2-70.4 121.6h0c0 32-6.4 57.6-19.2 89.6 0 96-32 179.2-102.4 249.6-70.4 70.4-153.6 102.4-249.6 102.4-96 0-179.2-32-249.6-102.4-64-70.4-102.4-153.6-102.4-249.6-12.8-25.6-19.2-57.6-19.2-89.6v-6.4c-38.4-32-57.6-76.8-70.4-115.2-19.2-57.6-25.6-108.8-19.2-153.6 6.4-51.2 32-83.2 64-96 6.4 0 19.2-6.4 25.6-6.4-12.8-19.2-19.2-38.4-19.2-64 0-38.4 19.2-76.8 64-102.4 38.4-25.6 89.6-38.4 147.2-38.4 64 0 121.6 12.8 160 44.8h32c44.8-32 96-44.8 160-44.8z"  horiz-adv-x="1024" />

    
    <glyph glyph-name="disanfang" unicode="&#59036;" d="M384.32 678.688l110.592 110.656c0 0 13.632 16.256 28.736 0l113.28-114.368L612.416 624.16 519.296 531.808c0 0-12.8-9.28-27.008 0L400 624.16 384.32 678.688zM636.864 674.976 612.416 624.16c0 0 48.192-12.48 76.352-30.208l27.584 48.192C716.352 642.144 661.504 672.032 636.864 674.976zM716.352 642.144l-27.584-48.192c0 0 72.32-32.192 128-109.184l46.208 31.616C862.976 516.448 809.344 591.968 716.352 642.144zM862.976 516.448l-46.208-31.616c0 0 81.92-84.48 79.552-251.136l54.656-8.704C950.976 224.992 963.136 394.528 862.976 516.448zM950.976 224.992l-54.656 8.704-120.512-55.744c0 0-21.12-10.368-10.112-34.816l56.384-122.496L874.88-0.8l129.408 60.928c0 0 18.048 8.064 9.344 29.056L950.976 224.992zM874.88-0.8l-52.736 21.44c0 0-72.64-112-210.24-147.456l13.376-53.44C625.28-180.256 783.168-141.92 874.88-0.8zM625.28-180.256l-13.376 53.44c0 0-119.04-38.336-232.768 6.976l-21.504-50.56C357.568-170.4 487.68-222.048 625.28-180.256zM357.568-170.4l21.504 50.56c0 0-103.936 30.144-182.336 130.624L133.504 4.96C133.504 4.96 205.44-116.96 357.568-170.4zM133.504 4.96l63.296 5.888 59.52 132.928c0 0 15.424 20.16-10.496 34.048C245.376 178.08 244.864 178.336 244.352 178.592 216.512 192.416 116.032 236.64 116.032 236.64l-53.952-30.72-53.44-116.16c0 0-5.248-24.32 13.312-33.024L133.504 4.96zM62.144 205.856l53.952 30.72c0 0-8.704 117.312 59.84 220.608l-46.464 30.72C129.408 487.968 49.088 379.68 62.144 205.856zM129.408 487.968l46.464-30.72c0 0 70.784 128.256 224.064 166.912L384.32 678.688C384.32 678.688 232.832 642.464 129.408 487.968z"  horiz-adv-x="1024" />

    
    <glyph glyph-name="warning-o" unicode="&#58904;" d="M512.777951 888.591378C233.187958 888.591378 6.538403 661.941823 6.538403 382.35182999999995c0-279.591802 226.656792-506.248594 506.239548-506.248594 279.591802 0 506.248594 226.656792 506.248594 506.248594C1019.026544 661.941823 792.369753 888.591378 512.777951 888.591378L512.777951 888.591378zM597.97077 719.951604l-24.3987-478.242375-122.006163 0L427.165399 719.951604 597.97077 719.951604 597.97077 719.951604zM509.624537 14.440932999999973c-53.452438 0-84.821936 38.562827-84.821936 84.843647 0 49.591633 36.0173 85.954488 85.983435 85.954488 51.124014 0 84.8147-36.362855 84.8147-85.954488C595.598926 50.803788000000054 561.90824 14.440932999999973 509.624537 14.440932999999973L509.624537 14.440932999999973zM509.21747-66.63779499999998"  horiz-adv-x="1024" />

    
    <glyph glyph-name="eye-fill" unicode="&#58969;" d="M511.99945386666667 712.6821216000001c-260.7883989333333 0-478.1082453333333-307.3498805333333-478.1082453333333-307.3498805333333s130.40566079999996-307.3498805333333 478.1082453333333-307.3498805333333c347.7025834666667 0 478.1082453333333 307.3498805333333 478.1082453333333 307.3498805333333S772.7878538666666 712.6821216000001 511.99945386666667 712.6821216000001L511.99945386666667 712.6821216000001zM511.99945386666667 220.93628479999995c-132.06266666666667 0-239.05412266666664 82.54560853333334-239.05412266666664 184.39595626666664s106.991456 184.41887893333333 239.05412266666664 184.41887893333333c131.9938976 0 239.05412266666664-82.56853013333333 239.05412266666664-184.41887893333333S643.9933514666667 220.93628479999995 511.99945386666667 220.93628479999995L511.99945386666667 220.93628479999995zM511.99945386666667 528.2632437333334c-66.0433408 0-119.52706133333332-55.04568746666666-119.52706133333332-122.93100159999999 0-67.88531413333334 53.48372053333333-122.93100159999999 119.52706133333332-122.93100159999999s119.52706133333332 55.04568746666666 119.52706133333332 122.93100159999999C631.5265152 473.2175562666666 578.0427946666666 528.2632437333334 511.99945386666667 528.2632437333334L511.99945386666667 528.2632437333334zM511.99945386666667 528.2632437333334"  horiz-adv-x="1024" />

    
    <glyph glyph-name="download" unicode="&#58925;" d="M236.978773 426.697451l240.92071-240.911862c18.790718-18.787902 49.3131-18.787902 68.103818 0l240.921733 240.911862c18.789695 18.788925 18.789695 49.311079 0 68.100004-18.834722 18.833951-49.3131 18.833951-68.146798 0L560.162345 336.190111 560.162345 749.822756c0 26.641777-21.570132 48.164976-48.210954 48.164976-26.641845 0-48.20993-21.524223-48.20993-48.164976l0-413.632645L305.126594 494.797455c-9.395359 9.438976-21.745124 14.114462-34.050886 14.114462-12.350789 0-24.700554-4.675486-34.096936-14.114462C218.189078 476.00853 218.189078 445.4874 236.978773 426.697451M873.289475 84.34012900000005c0-28.227901-22.893321-51.163263-51.210387-51.163263L201.824718 33.17686600000002c-28.318089 0-51.210387 22.935362-51.210387 51.163263l0 0c0 28.317952 22.892298 51.252291 51.210387 51.252291L822.079088 135.59241999999995C850.396154 135.59241999999995 873.289475 112.65808200000004 873.289475 84.34012900000005L873.289475 84.34012900000005z"  horiz-adv-x="1024" />

    
    <glyph glyph-name="import" unicode="&#58993;" d="M734.560467 520.7032019999999c1.444905 1.338482 1.999536 3.474118 1.237175 5.417372-0.761338 1.948371-2.621705 3.134381-4.592589 3.134381L593.808051 529.254955l0.295735 224.813783c0.005117 3.792365-1.434672 7.586777-4.328577 10.480681-2.889811 2.894927-6.683199 4.344949-10.476588 4.344949L444.725938 768.894368c-3.788272 0-7.58166-1.450022-10.476588-4.344949-2.888788-2.893904-4.3296-6.688316-4.325507-10.480681l0.274246-224.813783L292.794947 529.254955c-1.966791 0-3.826134-1.184986-4.593612-3.134381-0.762362-1.943255-0.206707-4.07889 1.239221-5.417372L501.930687 323.65063799999996c2.645241-2.447744 6.180757-3.949954 10.066243-3.949954 3.888556 0 7.427142 1.503234 10.067266 3.949954L734.560467 520.7032019999999 734.560467 520.7032019999999zM945.096087 270.283279L811.880305 373.20823399999995c-7.546868 5.888092-21.553855 10.705808-31.124819 10.705808l-77.128481 0 128.387832-127.934509L704.005628 255.97953399999994l-65.143542-92.5947L382.35555 163.38483399999996l-62.361178 92.611072L191.974929 255.995907 319.547188 383.914042l-78.569293 0c-9.571987 0-23.578974-4.817716-31.125842-10.705808L76.636271 270.283279c-7.546868-5.889115-11.288068-18.151369-8.314346-27.25059l53.144278-162.622473c2.973722-9.099221 13.238486-16.543758 22.810473-16.543758l734.20538 0c9.571987 0 19.800935 7.455794 22.732702 16.568318l52.276516 162.572331C956.41997 252.12065399999994 952.642955 264.39416400000005 945.096087 270.283279z"  horiz-adv-x="1024" />

    
    <glyph glyph-name="sso" unicode="&#58890;" d="M433.211051 619.8076100000001m-237.33029 0a231.925 231.925 0 1 1 474.66058 0 231.925 231.925 0 1 1-474.66058 0ZM515.182994 373.916341c-26.937512 5.64865-54.4491 8.559956-81.971943 8.559956-52.265364 0-104.519472-10.393721-152.807245-30.398334-48.28675-20.00359-92.585675-49.600675-129.546471-86.552262-36.95261-36.960797-66.547649-81.259722-86.551238-129.546471-20.004613-48.287773-30.398334-100.541881-30.398334-152.806221l464.617853 0c-47.52848 48.2714-76.866668 114.50387-76.866668 187.599655C421.659971 252.06410900000003 457.939245 324.872345 515.182994 373.916341zM729.187019 438.188156c-147.68969 0-267.414469-119.725802-267.414469-267.414469 0-147.68969 119.724779-267.414469 267.414469-267.414469S996.601488 23.083996999999954 996.601488 170.773687C996.601488 318.462355 876.87671 438.188156 729.187019 438.188156zM678.219207 4.962267999999995L525.348518 157.73574299999996l63.726394 63.651692 89.144296-89.090061 191.07992 190.918237 63.726394-63.635319"  horiz-adv-x="1024" />

    
    <glyph glyph-name="app-add" unicode="&#58991;" d="M363.9402666666667 785.7333333333333q25.4784 0 43.6064-17.6384t18.128-43.11573333333333v-244.976q0-25.4784-18.128-43.6064t-43.6064-18.128h-244.976q-25.4784 0-43.11573333333333 18.128t-17.6384 43.6064v244.976q0 25.4784 17.6384 43.11573333333333t43.11573333333333 17.6384h244.976zM363.9402666666667 295.78133333333335q25.4784 0 43.6064-17.6384t18.128-43.11573333333333v-245.95626666666666q0-25.4784-18.128-43.11573333333333t-43.6064-17.6384h-244.976q-25.4784 0-43.11573333333333 17.6384t-17.6384 43.11573333333333v245.95626666666666q0 25.4784 17.6384 43.11573333333333t43.11573333333333 17.6384h244.976zM854.8725333333333 295.78133333333335q25.4784 0 43.11573333333333-17.6384t17.6384-43.11573333333333v-245.95626666666666q0-25.4784-17.6384-43.11573333333333t-43.11573333333333-17.6384h-244.976q-25.4784 0-43.6064 17.6384t-18.128 43.11573333333333v245.95626666666666q0 25.4784 18.128 43.11573333333333t43.6064 17.6384h244.976zM991.0784 677.9445333333333q19.59786666666667-19.59786666666667 19.59786666666667-46.05546666666667t-19.59786666666667-45.07626666666667l-182.2624-182.2624q-19.59786666666667-19.59786666666667-45.56586666666667-19.59786666666667t-45.56586666666667 19.59786666666667l-182.2624 182.2624q-18.6176 18.6176-18.6176 45.07626666666667t18.6176 46.05546666666667l182.2624 182.2624q19.59786666666667 18.6176 45.56586666666667 18.6176t45.56586666666667-18.6176z"  horiz-adv-x="1024" />

    
    <glyph glyph-name="ok-angle" unicode="&#59003;" d="M512 896q139.264 0 257.024-68.608t186.368-186.368 68.608-257.024-68.608-257.024-186.368-186.368-257.024-68.608-257.024 68.608-186.368 186.368-68.608 257.024 68.608 257.024 186.368 186.368 257.024 68.608zM266.24 438.272l-55.296-54.272q72.704-72.704 132.096-136.192t82.944-92.16l22.528-26.624q8.192 13.312 22.528 36.864t58.368 87.04 84.992 121.856 97.28 121.856 101.376 106.496q-18.432 35.84-36.864 35.84-10.24-6.144-32.768-22.528t-115.712-99.328-216.064-205.824z"  horiz-adv-x="1025" />

    
    <glyph glyph-name="add-o" unicode="&#58923;" d="M512-127.99999999999989c-282.7519999999999 0-512 229.24799999999996-512 512s229.24799999999996 512 512 512c282.7519999999999 0 512-229.24799999999996 512-512S794.7520000000001-127.99999999999989 512-127.99999999999989zM768 448L576 448 576 640 448 640l0-192L256 448l0-128 192 0 0-192 128 0L576 320l192 0L768 448z"  horiz-adv-x="1024" />

    
    <glyph glyph-name="mail" unicode="&#58899;" d="M849.5 721.5L174.5 721.5C112.45625000000001 721.5 62 671.04375 62 609l0-450c0-62.043749999999996 50.45625-112.5 112.5-112.5l675 0c62.043749999999996 0 112.5 50.45625 112.5 112.5L962 609C962 671.04375 911.54375 721.5 849.5 721.5zM849.5 665.25c5.5125 0 10.4625-1.63125 15.46875-3.15L532.1937499999999 332.8125C521.28125 321.9 502.66249999999997 321.9 491.6375 332.75625L156.95 661.70625C162.57500000000005 663.5625 168.3125 665.25 174.5 665.25L849.5 665.25zM905.75 159c0-31.050000000000004-25.2-56.25-56.25-56.25L174.5 102.75c-30.993750000000002 0-56.25 25.2-56.25 56.25L118.25 609c0 3.54375 1.3499999999999999 6.581250000000001 2.025 9.899999999999999l331.93125-326.25c16.48125-16.2 38.081250000000004-24.35625 59.737500000000004-24.35625 21.7125 0 43.36875 8.2125 59.85 24.525l331.59375 328.10625000000005C904.23125 616.9875 905.75 613.21875 905.75 609L905.75 159z"  horiz-adv-x="1024" />

    
    <glyph glyph-name="mianxingtubiaotianjiashuqian" unicode="&#58964;" d="M735.118222 72.080356 692.451556 72.080356c-4.164267 0-7.5776 4.323556-8.829156 10.24-0.318578-0.113778-0.637156-0.182044-0.955733-0.295822L682.666667 208.977778l-87.108267 0c-44.054756 0-79.735467 35.680711-79.735467 79.758222 0 44.032 35.680711 79.735467 79.735467 79.735467L682.666667 368.471467l0 121.491911c0.136533 0.022756 0.250311 0.068267 0.386844 0.091022 0 0.068267-0.022756 0.113778-0.022756 0.182044 0 8.237511 4.232533 14.927644 9.4208 14.927644l14.586311 0c0.022756 0.022756 0.045511 0.022756 0.045511 0.045511L750.933333 505.2096 750.933333 641.333333c0 28.034844-17.476267 45.511111-45.511111 45.511111L182.044444 686.844444c-28.034844 0-45.511111-17.476267-45.511111-45.511111l0-728.177778c0-28.0576 27.716267-45.374578 55.773867-45.374578l252.381867 194.127644 255.544889-194.127644c28.034844 0 50.699378 17.316978 50.699378 45.374578l0 159.152356-15.132444 0C735.550578 72.285156 735.345778 72.080356 735.118222 72.080356zM876.088889 322.7328 773.688889 322.7328 773.688889 425.155556c0 18.8416-15.291733 34.133333-34.133333 34.133333S705.422222 443.997156 705.422222 425.155556l0-102.422756-102.4 0c-18.8416 0-34.133333-15.291733-34.133333-34.133333 0-18.864356 15.291733-34.133333 34.133333-34.133333L705.422222 254.466133 705.422222 152.088889c0-18.8416 15.291733-34.133333 34.133333-34.133333S773.688889 133.247289 773.688889 152.088889l0 102.377244 102.4 0c18.8416 0 34.133333 15.268978 34.133333 34.133333C910.222222 307.441067 894.930489 322.7328 876.088889 322.7328z"  horiz-adv-x="1024" />

    
    <glyph glyph-name="binding" unicode="&#58913;" d="M333.06186 162.93823199999997c-58.347896-52.210106-97.040127-49.051159-136.467091-9.492188l-45.156456 48.462758c-39.427988 39.541575-39.427988 103.667058 0 143.226029l193.260585 193.848986c39.426965 39.558971 103.355973 39.558971 142.78396 0l35.679617-35.794228c30.457686-30.555923 37.398772-75.762521 20.801768-112.997564l86.286202-66.040089c59.149145 59.33027 59.149145 155.517983 0 214.830857L523.162476 646.3992450000001c-59.133795 59.33027-155.010423 59.33027-214.160591 0L44.350342 380.928035c-59.133795-59.313897-59.133795-155.50161 0-214.830857l107.08797-107.415428c59.133795-59.313897 155.026796-59.313897 214.176964 0l102.161774 105.647155-72.980151 70.034053L333.06186 162.93823199999997zM987.196021 610.605018L880.1234 718.020446c-59.149145 59.33027-155.026796 59.33027-214.176964 0 0 0 4.223185 1.064238-57.988716-61.343113l71.113641-68.167542 31.604812 34.877345c39.427988 39.541575 103.356996 39.541575 142.78396 0l35.69599-35.8106c39.427988-39.541575 39.427988-103.667058 0-143.226029L714.818517 263.152655c-39.427988-39.541575-103.340623-39.541575-142.768611 0l-29.395494 48.462758c-61.883419 46.25344-42.865273 57.317427-37.611619 88.544639L426.548044 477.869924c-59.150168-59.33027-59.150168-155.517983 0-214.830857l107.072621-107.432825c59.149145-59.312874 155.026796-59.312874 214.176964 0l239.398392 240.166895C1071.582967 493.075231 987.196021 610.605018 987.196021 610.605018z"  horiz-adv-x="1025" />

    
    <glyph glyph-name="search-bold" unicode="&#59261;" d="M672.6982141601563 458.80952418619785q0 92.925-66.05357167968751 158.9464283203125t-158.9464283203125 66.05357167968751-158.9464283203125-66.05357167968751-66.05357167968751-158.9464283203125 66.05357167968751-158.9464283203125 158.9464283203125-66.05357167968751 158.9464283203125 66.05357167968751 66.05357167968751 158.9464283203125zM929.8410716796875 40.95238082682317q0-26.1-19.09285751953125-45.19285751953125t-45.19285751953125-19.09285751953125q-27.1285716796875 0-45.19285751953125 19.09285751953125l-172.25357167968752 171.77142832031248q-89.9035716796875-62.260714160156255-200.37857167968752-62.260714160156255-71.80714248046874 0-137.3464283203125 27.867857519531253t-113.01428583984374 75.34285751953125-75.34285751953125 113.01428583984374-27.867857519531253 137.3464283203125 27.867857519531253 137.3464283203125 75.34285751953125 113.01428583984374 113.01428583984374 75.34285751953125 137.3464283203125 27.867857519531253 137.3464283203125-27.867857519531253 113.01428583984374-75.34285751953125 75.34285751953125-113.01428583984374 27.867857519531253-137.3464283203125q0-110.47500000000001-62.260714160156255-200.37857167968752l172.25357167968752-172.25357167968752q18.5785716796875-18.5785716796875 18.5785716796875-45.19285751953125z"  horiz-adv-x="1024" />

    
    <glyph glyph-name="app-auth" unicode="&#58941;" d="M806.7500000000001 811.5L217.24999999999994 811.5C143 811.5 84.5 753 84.5 678.75l0-589.5000000000001C84.5 15 143-43.5 217.24999999999994-43.5l589.5000000000001 0c74.25 0 132.75 58.50000000000001 132.75 132.75L939.5 678.75C939.5 753 881 811.5 806.7500000000001 811.5L806.7500000000001 811.5zM424.25 154.5l-218.24999999999997 220.5 92.24999999999999 83.25 130.5-130.5L741.5 613.5l78.75-92.24999999999999L424.25 154.5 424.25 154.5zM424.25 154.5"  horiz-adv-x="1024" />

    
    <glyph glyph-name="android" unicode="&#58881;" d="M874.28889 115.006157C842.688238 115.006157 817.100099 141.666294 817.100099 174.478771L817.100099 428.822072C817.100099 461.681157 842.688238 488.294685 874.28889 488.294685 905.889542 488.294685 931.47768 461.681157 931.47768 428.822072L931.47768 174.478771C931.47768 141.666294 905.889542 115.006157 874.28889 115.006157ZM718.569453-10.510887 674.990382-10.510887C676.43525-15.777662 677.274205-21.277481 677.274205-27.010342L677.274205-30.319555 677.274205-50.128224 677.274205-152.527386C677.274205-185.386472 651.639458-212 620.038806-212 588.484763-212 562.850015-185.386472 562.850015-152.527386L562.850015-50.128224 562.850015-30.319555 562.850015-27.010342C562.850015-21.277481 563.688971-15.777662 565.133838-10.510887L458.866159-10.510887C460.311027-15.777662 461.196591-21.277481 461.196591-27.010342L461.196591-30.319555 461.196591-50.128224 461.196591-152.527386C461.196591-185.386472 435.561843-212 403.961191-212 372.360539-212 346.725792-185.386472 346.725792-152.527386L346.725792-50.128224 346.725792-30.319555 346.725792-27.010342C346.725792-21.277481 347.564747-15.777662 349.009615-10.510887L305.430545-10.510887C272.151982-10.510887 245.072367 17.640726 245.072367 52.270939L245.072367 398.526461 245.072367 438.842927 245.072367 488.294685 249.173927 488.294685 774.826071 488.294685 778.92763 488.294685 778.92763 438.842927 778.92763 398.526461 778.92763 52.270939C778.92763 17.640726 751.894624-10.510887 718.569453-10.510887ZM380.750093 726.231748 370.030108 743.010855 359.40334 759.510311 335.632938 796.610781C332.743203 801.131818 333.908419 807.284158 338.28963 810.313719 342.670841 813.389888 348.590137 812.131455 351.526481 807.56381L377.021402 767.806647 387.741388 751.120757 398.601199 734.201824C433.044977 748.044587 471.450489 755.828229 511.999999 755.828229 552.549508 755.828229 591.001629 748.044587 625.445407 734.201824L636.305218 751.120757 647.025204 767.806647 672.520125 807.56381C675.40986 812.131455 681.329156 813.389888 685.756976 810.313719 690.091579 807.284158 691.303403 801.131818 688.36706 796.610781L664.596658 759.510311 654.016498 743.010855 643.249904 726.231748C724.209097 687.080498 778.92763 612.879557 778.92763 527.912022L245.072367 527.912022C245.072367 612.879557 299.837509 687.080498 380.750093 726.231748ZM626.424189 607.193304C642.224515 607.193304 654.995279 620.523372 654.995279 636.92961 654.995279 653.335849 642.224515 666.619308 626.424189 666.619308 610.623863 666.619308 597.806489 653.335849 597.806489 636.92961 597.806489 620.523372 610.623863 607.193304 626.424189 607.193304ZM397.622417 607.193304C413.422744 607.193304 426.193508 620.523372 426.193508 636.92961 426.193508 653.335849 413.422744 666.619308 397.622417 666.619308 381.822091 666.619308 369.004718 653.335849 369.004718 636.92961 369.004718 620.523372 381.822091 607.193304 397.622417 607.193304ZM149.711108 115.006157C118.110456 115.006157 92.522317 141.666294 92.522317 174.478771L92.522317 428.822072C92.522317 461.681157 118.110456 488.294685 149.711108 488.294685 181.31176 488.294685 206.946507 461.681157 206.946507 428.822072L206.946507 174.478771C206.946507 141.666294 181.31176 115.006157 149.711108 115.006157Z"  horiz-adv-x="1024" />

    
    <glyph glyph-name="bookmark-mine" unicode="&#60531;" d="M857.2378602666666 825.6076533333334c0 19.063512533333334-15.454924799999999 34.523895466666666-34.56100693333334 34.523895466666666L174.47268373333333 860.1315488c-19.070061866666666 0-34.56100693333334-15.460382933333332-34.56100693333334-34.523895466666666l0-829.5471263999999c0-19.070061866666666 15.460382933333332-34.5304448 34.56100693333334-34.5304448l34.69417386666667 0L209.16685653333332 756.3513813333334l0.03711146666666666 0c0 19.064603733333335 15.453833599999998 34.52498666666667 34.55554986666667 34.52498666666667l613.4783424 0L857.2378602666666 825.6076533333334zM849.6473845333334 721.8569578666667L311.1241749333334 721.8569578666667c-18.560318933333335 0-33.74672853333333-15.186409600000001-33.74672853333333-33.7510944l0-761.7753312c0-18.560318933333335 11.0364256-23.3226496 24.533151999999994-10.561611733333333l253.94039146666668 239.75709439999997c13.4978176 12.762129066666667 35.5706688 12.762129066666667 49.07394453333333 0L858.8598688-84.22998719999987c13.4978176-12.762129066666667 24.533151999999994-7.967052800000001 24.533151999999994 10.561611733333333L883.3930208 688.1058634666667C883.3930208 706.6716394666666 868.2066112 721.8569578666667 849.6473845333334 721.8569578666667z"  horiz-adv-x="1024" />

    
    <glyph glyph-name="code" unicode="&#59494;" d="M896 768L128 768c-35.345 0-64-28.651-64-63.994l0-640.012C64 28.647000000000048 92.654 0 128 0l768 0c35.345 0 64 28.651 64 63.994L960 704.006C960 739.3530000000001 931.346 768 896 768zM800 704c17.673 0 32-14.327 32-32s-14.327-32-32-32-32 14.327-32 32S782.327 704 800 704zM672 704c17.673 0 32-14.327 32-32s-14.327-32-32-32-32 14.327-32 32S654.327 704 672 704zM544 704c17.673 0 32-14.327 32-32s-14.327-32-32-32-32 14.327-32 32S526.327 704 544 704zM896 64L128 64 128 576l768 0L896 64zM301.274 127.293L493.607 319.626 493.496 319.73699999999997 493.607 319.84900000000005 301.274 512.182 256.02 466.927 403.209 319.73699999999997 256.02 172.548ZM448 192l320 0 0-64-320 0 0 64Z"  horiz-adv-x="1024" />

    
    <glyph glyph-name="bell" unicode="&#59400;" d="M816.8152870000001 533.1227883333333c0 200.215998-161.966858 250.59643199999996-252.471129 263.120676 5.704932 9.249665 9.003048 20.138666 9.003048 31.80231 0 33.506115-27.193339 60.681034-60.734246 60.681034-33.540907 0-60.752666-27.175943-60.752666-60.681034 0-11.292184 3.0975479999999997-21.856796999999997 8.473999-30.913057-89.079828-10.943235999999999-258.662131-58.710147-258.662131-263.841084 0-162.471348-16.089443-375.546212-156.477844-375.546212l17.680684-66.23349399999998c0 0 26.160823-9.025561 60.109006 1.565658l144.923694 0c30.078039-98.229209 121.159454-169.63244499999996 228.86243099999996-169.63244499999996s198.784392 71.403237 228.86243099999996 169.63244499999996l168.654164 0c34.537608-11.027148 61.32571699999999-1.610684 61.32571699999999-1.610684l17.680684 66.286706C842.222957 157.75360833333332 816.8152870000001 355.7459613333334 816.8152870000001 533.1227883333333zM496.769111-5.830073666666635c-71.24257799999998 0-117.509321 39.285748-137.491421 98.907661L633.021308 93.07758633333344C613.1845170000001 33.9560713333334 567.248302-5.830073666666635 496.769111-5.830073666666635zM205.81757600000003 163.80237133333333c38.268582 61.96630700000001 69.230758 172.913165 69.230758 369.737926 0 180.111101 228.458225 196.844204 238.177588 197.475584l0.358157-2.974751c0 0 229.854015-7.850805000000001 229.854015-194.491623 0-196.699917 30.747281-307.694871 68.829622-369.746112L205.81757600000003 163.80339433333336z"  horiz-adv-x="1024" />

    
    <glyph glyph-name="wechart" unicode="&#59365;" d="M1024 259.96799999999996c0 141.888-141.866667 257.429333-301.461333 257.429333-169.088 0-301.866667-115.541333-301.866667-257.429333 0-142.250667 132.778667-257.386667 301.866667-257.386667 35.370667 0 71.146667 9.024 106.496 17.642667l97.450667-53.418667-26.666667 88.789333C970.922667 109.03466700000001 1024 180.15999999999997 1024 259.96799999999996zM624.618667 304.384c-17.642667 0-35.328 17.664-35.328 35.392 0 17.621333 17.685333 35.328 35.328 35.328 26.752 0 44.458667-17.706667 44.458667-35.328C669.077333 322.048 651.370667 304.384 624.618667 304.384zM820.010667 304.384c-17.664 0-35.306667 17.664-35.306667 35.392 0 17.621333 17.642667 35.328 35.306667 35.328 26.709333 0 44.416-17.706667 44.416-35.328C864.426667 322.048 846.293333 304.384 820.010667 304.384zM693.248 548.757333c11.626667 0 23.296-0.810667 34.901333-2.005333-31.274667 146.133333-187.392 254.464-365.674667 254.464C163.370667 801.216 0 665.557333 0 492.970667c0-99.562667 54.208-181.418667 144.917333-244.864L108.8 138.965333l126.826667 63.786667c45.354667-8.810667 81.877333-18.069333 126.848-18.069333 11.221333 0 22.506667 0.405333 33.749333 1.557333-7.232 24.128-11.242667 49.749333-11.242667 75.882667C384.96 420.309333 521.066667 548.757333 693.248 548.757333zM498.133333 647.104c27.285333 0 45.333333-18.069333 45.333333-45.376 0-27.264-18.069333-45.333333-45.333333-45.333333-27.306667 0-54.570667 18.069333-54.570667 45.333333C443.968 629.056 471.210667 647.104 498.133333 647.104zM244.458667 556.4373330000001c-27.306667 0-54.570667 18.048-54.570667 45.333333 0 27.306667 27.285333 45.354667 54.570667 45.354667 27.328 0 45.397333-18.069333 45.397333-45.354667C289.834667 574.869333 271.786667 556.4373330000001 244.458667 556.4373330000001z"  horiz-adv-x="1024" />

    
    <glyph glyph-name="trash" unicode="&#58959;" d="M168.70613704681392 696.9231794675192c0 22.32393636703491 19.128026990890504 40.403788089752204 42.74281743049622 40.403788089752204l213.71566686630248 0L425.1646213436126 777.7821369012197c0 22.300222120285035 19.128026990890504 40.40536857604981 42.74281743049622 40.40536857604981L553.3930728626251 818.1875054772694c23.61558068275452 0 42.74281743049622-18.10435621261597 42.74281743049622-40.40536857604981l0-40.455169343948356 213.71645788192748 0c23.613999423980715 0 42.74281743049622-18.079850950241088 42.74281743049622-40.403788089752204l0-40.453588085174566L168.70613704681392 656.4695913823446 168.70613704681392 696.9231794675192zM809.8531384181977 575.635139983495l0-80.85974767684937 0-417.7471681308746c0-22.32393636703491-19.1288180065155-40.42908359527588-42.74281743049622-40.42908359527588L254.19177113533016 36.599141352971515c-23.61558068275452 0-42.74281743049622 18.10435621261597-42.74281743049622 40.42908359527588L211.44895447731017 494.7746020634969 211.44895447731017 575.635139983495l0 40.42908359527588 598.4041839408875 0L809.8531384181977 575.635139983495zM382.4210136699677 494.7746020634969c0 22.327889127731318-19.128026990890504 40.431454324722296-42.74281743049622 40.431454324722296s-42.74281743049622-18.103565969467155-42.74281743049622-40.431454324722296l0-336.8866302108765c0-22.34923187255859 19.128026990890504-40.42908359527588 42.74281743049622-40.42908359527588s42.74281743049622 18.07906070709228 42.74281743049622 40.42908359527588L382.4210136699677 494.7746020634969zM553.3930728626251 494.7746020634969c0 22.327889127731318-19.128026990890504 40.431454324722296-42.74281743049622 40.431454324722296s-42.74281743049622-18.103565969467155-42.74281743049622-40.431454324722296l0-336.8866302108765c0-22.34923187255859 19.128026990890504-40.42908359527588 42.74281743049622-40.42908359527588s42.74281743049622 18.07906070709228 42.74281743049622 40.42908359527588L553.3930728626251 494.7746020634969zM724.3651328277589 494.7746020634969c0 22.327889127731318-19.127236747741698 40.431454324722296-42.74281743049622 40.431454324722296-23.613999423980715 0-42.74281743049622-18.103565969467155-42.74281743049622-40.431454324722296l0-336.8866302108765c0-22.34923187255859 19.1288180065155-40.42908359527588 42.74281743049622-40.42908359527588 23.61558068275452 0 42.74281743049622 18.07906070709228 42.74281743049622 40.42908359527588L724.3651328277589 494.7746020634969z"  horiz-adv-x="1024" />

    
    <glyph glyph-name="iconfontanquan" unicode="&#58957;" d="M512-42.666667C512-42.666667 149.333333 83.733333 149.333333 306.432 149.333333 545.749333 149.333333 681.365333 149.333333 681.365333L512 810.666667 874.666667 681.365333C874.666667 681.365333 874.666667 545.749333 874.666667 306.432 874.666667 83.733333 512-42.666667 512-42.666667ZM662.848 517.184 481.834667 336.149333 382.485333 435.498667 322.154667 375.168 421.482667 275.818667 421.482667 275.818667 481.834667 215.488 542.165333 275.818667 542.165333 275.818667 723.178667 456.832 662.848 517.184Z"  horiz-adv-x="1024" />

    
    <glyph glyph-name="das" unicode="&#58897;" d="M837.665407 241.529423c28.565389 0 41.525359 11.590544 41.525359 40.084085 0 16.496336-17.456227 38.612635-29.429004 48.070726l-2.273276 2.273276c-39.813936 30.794119-81.368034 60.13403-129.141308 78.370529 60.761983 52.151701 99.436407 123.657857 99.436407 210.010715C817.783586 777.32122 690.460036 896 533.477569 896s-284.260034-118.67878-284.260034-275.661247c0-86.352859 38.680172-157.859015 99.413416-210.010715C154.714221 335.924964 16.726969 148.419964 16.60339-71.834862l0-0.09484c0.123579-28.447558 12.602166-49.660007 40.997993-49.660007 28.638674 0 45.206858 20.696579 47.987382 48.980323C127.39899 149.375544 241.631806 319.77781 533.50056 357.127354c92.771773 11.872189 200.20919-37.513358 267.016477-93.174122 18.141659-15.116851 25.006031-19.615983 33.11194-21.942426L837.665407 241.529423 837.665407 241.529423zM533.50056 431.057667C414.64216 431.057667 339.089516 520.563222 339.089516 620.338753 339.089516 680.45554 406.020381 808.080852 533.792263 808.080852c130.88147 0 197.576674-123.314423 197.576674-188.949148C731.368937 519.330308 647.430177 431.057667 533.50056 431.057667L533.50056 431.057667 533.50056 431.057667zM628.272585 109.126209c0-28.54096 23.148038-42.182051 51.686125-42.182051l275.746028 0c28.542397 0 51.691872 13.64109 51.691872 42.182051 0 28.592691-23.148038 48.076473-51.691872 48.076473L679.95871 157.202682C651.420623 157.202682 628.272585 137.720337 628.272585 109.126209L628.272585 109.126209 628.272585 109.126209zM955.703301-41.760661 679.95871-41.760661c-28.53665 0-51.686125-10.107598-51.686125-38.651433 0-28.58838 23.148038-47.587906 51.686125-47.587906l275.746028 0c28.542397 0 51.691872 19.023954 51.691872 47.587906C1007.395173-51.86826 984.247135-41.760661 955.703301-41.760661L955.703301-41.760661 955.703301-41.760661zM955.703301-41.760661"  horiz-adv-x="1024" />

    
    <glyph glyph-name="layer" unicode="&#59063;" d="M117.599609375 513.712890625l361.599609375-177.978515625C488.744140625 330.14453125 499.607421875 326.083984375 512 326.083984375c12.392578125 0 23.255859375000004 4.060546875 32.80078125 9.650390625000002l361.599609375 177.978515625C922.58984375 523.205078125 933.875 538.498046875 933.875 556.796875c0 18.24609375-11.28515625 33.591796875-27.474609375000004 43.083984375L544.80078125 777.859375C535.2558593750001 783.44921875 524.3925781249999 785.875 512 785.875 499.607421875 785.875 488.744140625 781.814453125 479.19921875 776.224609375L117.599609375 599.880859375C101.41015625 590.44140625 90.125 575.095703125 90.125 556.796875 90.125 538.498046875 101.41015625 523.205078125 117.599609375 513.712890625zM873.599609375 415.099609375c-13.710937500000002-1.2656249999999998-33.43359375-10.494140625000002-33.43359375-10.494140625000002L512 247.720703125 183.201171875 407.083984375C173.65624999999994 412.673828125 162.6875 418.89648437500006 150.400390625 420.373046875 108.845703125 425.27734375 90.125 391.474609375 90.125 362.365234375c0-18.298828125 11.28515625-33.591796875 27.474609375000004-43.083984375l361.599609375-177.978515625C488.744140625 135.66015625 499.607421875 131.65234375 512 131.65234375c12.392578125 0 23.255859375000004 4.060546875 32.80078125 9.650390625000002l361.599609375 173.021484375C922.58984375 323.8164062499999 933.875 342.431640625 933.875 360.6777343749999 933.875 389.83984375000006 906.7167968749999 418.21093749999994 873.599609375 415.099609375zM873.599609375 225.572265625c-17.61328125-2.21484375-33.43359375-10.494140625000002-33.43359375-10.494140625000002L512 58.24609375l-328.798828125 159.31054687499997c-9.544921874999998 5.589843749999999-20.513671875 11.8125-32.80078125 13.2890625C108.845703125 235.8027343750001 90.125 201.9472656249999 90.125 172.837890625c0-18.298828125 11.28515625-33.591796875 27.474609375000004-43.083984375l361.599609375-177.978515625C488.744140625-53.814453125 499.607421875-57.875 512-57.875c12.392578125 0 23.255859375000004 4.060546875 32.80078125 9.650390625000002l361.599609375 173.021484375C922.58984375 134.2890625 933.875 152.9042968749999 933.875 171.203125 933.875 200.3125 906.611328125 229.6855468749999 873.599609375 225.572265625z"  horiz-adv-x="1024" />

    
    <glyph glyph-name="table" unicode="&#58901;" d="M918.016 776.014h-812.032c-23.197 0-42.002-18.803-42.002-42.001v-700.029c0-23.196 18.804-42.001 42.002-42.001h812.032c23.195 0 42.002 18.803 42.002 42.001v700.029c0 23.197-18.807 42-42.001 42zM918.016 608.009v-164.135h-242.678v164.135h242.678zM390.661 238.52599999999995v163.347h242.678v-163.347h-242.678zM633.339 196.524v-162.538h-242.678v162.538h242.678zM348.66 238.52599999999995h-242.678v163.347h242.678v-163.347zM633.339 608.009v-164.135h-242.678v164.135h242.678zM675.339 401.873h242.678v-163.347h-242.678v163.347zM399.996 734.014c23.197 0 42.002-18.803 42.002-42.004 0-23.196-18.804-42.001-42.002-42.001s-42.003 18.803-42.003 42.001c0 23.199 18.806 42.003 42.003 42.003zM273.991 734.014c23.195 0 42.002-18.803 42.002-42.004 0-23.196-18.805-42.001-42.002-42.001-23.197 0-42.003 18.803-42.003 42.001 0.001 23.199 18.806 42.003 42.003 42.003zM147.986 734.014c23.195 0 42.002-18.803 42.002-42.004 0-23.196-18.805-42.001-42.002-42.001-23.197 0-42.003 18.803-42.003 42.001 0.001 23.199 18.806 42.003 42.003 42.003zM147.986 608.009h200.674v-164.135h-242.678l0.001 164.135h42.002zM105.984 196.524h242.678v-162.538h-242.678v162.538zM675.339 33.98599999999999v162.538h242.678v-162.538h-242.678z"  horiz-adv-x="1024" />

    
    <glyph glyph-name="question" unicode="&#59090;" d="M512 864C246.92000000000002 864 32 649.0799999999999 32 384c0-265.08 214.92-480 480-480 265.08 0 480 214.92 480 480C992 649.0799999999999 777.0799999999999 864 512 864zM509 102.12c-33.779999999999994 0.96-60.3 24.3-59.22 59.64 1.0799999999999998 35.339999999999996 28.919999999999998 57.9 62.699999999999996 56.94 35.28-1.02 61.019999999999996-25.08 59.94-60.419999999999995C571.34 122.93999999999994 544.28 101.10000000000002 509 102.12zM665.9 425.22C656.9 412.92 636.5600000000001 397.2 611.06 378L582.8 359.22c-13.68-10.260000000000002-25.86-22.2-30.36-35.94C550.1 316.0200000000001 548.5999999999999 309.65999999999997 548.0600000000001 297.05999999999995 547.94 294.6 546.3199999999999 288.9 538.4 288.9L458.6 288.9c-8.879999999999999 0-9.84 5.04-9.780000000000001 7.5 1.26 34.5 2.52 58.5 16.68 74.52 24.419999999999998 27.66 80.1 62.099999999999994 80.1 62.099999999999994 8.52 6.119999999999999 15.36 12.84 20.520000000000003 20.16 9.42 12.54 17.279999999999998 26.34 17.279999999999998 41.4 0 17.34-5.279999999999999 33.120000000000005-15.780000000000001 47.34C557.12 556.26 537.9200000000001 563.4 510.08 563.4c-27.42 0-46.800000000000004-8.76-58.26-26.34C443.96 525 438.8 512.7 436.34 500.04c-0.84-16.080000000000002-5.82-17.7-16.200000000000003-17.7L343.22 482.34000000000003c-6.84 0-8.52 4.08-10.08 15.9 5.76 56.64 28.919999999999998 97.38 69.47999999999999 122.27999999999999C430.58 637.8 464.9 646.5 505.58 646.5c53.46 0 97.91999999999999-12.299999999999999 133.32-36.96C674.3 584.94 692 548.46 692 500.09999999999997 692 470.46 681.2 445.5 665.9 425.22z"  horiz-adv-x="1024" />

    
    <glyph glyph-name="left" unicode="&#58898;" d="M674.8885618591307 16.79583975219714L306.47275354003904 386.08770941162106 673.2409908447264 753.7336955566407l41.067-40.947269073486325L388.3748804931641 386.08770941162106l327.5739363098144-328.3446014099121L674.8885618591307 16.79583975219714zM674.8885618591307 16.79583975219714"  horiz-adv-x="1024" />

    
    <glyph glyph-name="refresh" unicode="&#58982;" d="M468.527-8.262666666666632c-91.531 11.641-173.327 51.483-237.979 115.919C163.319 174.66633333333334 121.671 263.5333333333334 113.1 358.3233333333334l-1.047 11.51-48.763-2.836c-26.833-1.573-49.402-2.663-50.159-2.432-0.772 0.232 34.648 40.92 78.71 90.411 44.063 49.49 80.733 89.784 81.475 89.522 1.703-0.597 180.602-159.589 180.121-160.084-0.509-0.494-85.957-5.558-93.843-5.558l-6.374 0 1.164-11.918c5.879-60.1 32.334-115.191 76.382-159.051 51.367-51.148 113.926-77.196 185.404-77.196 70.62 0 133.905 25.916 185.185 75.827 15.25 14.844 18.468 17.274 20.722 15.658 1.483-1.062 25.685-21.1 53.813-44.542 42.985-35.841 50.886-43.074 49.591-45.488-0.843-1.573-9.851-11.248-20.022-21.521-33.427-33.702-65.658-57.073-108.062-78.318-38.881-19.471-78.74-32.32-120.809-38.94C553.653-10.25666666666666 491.518-11.188666666666677 468.527-8.262666666666632L468.527-8.262666666666632zM762.121 347.2223333333334l-90.045 80.12 31.97 1.906c17.58 1.048 40.338 2.417 50.568 3.043l18.595 1.134-1.104 10.928c-6.404 62.864-37.515 125.232-83.077 166.574-34.937 31.708-77.792 54.292-120.648 63.605-54.946 11.933-110.287 7.116-160.389-13.956-31.038-13.066-57.726-30.907-82.741-55.325-9.953-9.721-18.394-17.666-18.743-17.666-0.35 0-24.592 20.037-53.855 44.542l-53.216 44.543 3.144 4.351c1.731 2.386 10.04 11.379 18.48 19.964 62.543 63.723 143.233 104.511 233.09 117.84 26.586 3.944 85.87 3.914 111.755-0.146 119.036-18.233 218.306-81.751 284.284-181.896 31.548-47.889 54.773-112.848 61.741-172.656 1.414-12.093 2.723-22.148 2.913-22.337 0.188-0.189 22.526 0.989 49.636 2.634 27.107 1.629 49.506 2.779 49.752 2.546 0.83-0.713-159.24-179.977-160.694-179.977-0.758 0-41.896 36.062-91.416 80.123L762.121 347.2223333333334z"  horiz-adv-x="1024" />

    
    <glyph glyph-name="board-sm2" unicode="&#58973;" d="M865.7321424804688-66C865.7321424804688-66 158.5892858398438-66 158.5892858398438-66 140.84642832031255-66 126.44642832031252-51.59999999999991 126.44642832031252-33.85714248046884 126.44642832031252-33.85714248046884 126.44642832031252 801.8571424804687 126.44642832031252 801.8571424804687 126.44642832031252 819.5999999999999 140.84642832031255 834 158.5892858398438 834 158.5892858398438 834 865.7321424804688 834 865.7321424804688 834 883.5071424804688 834 897.8749999999999 819.5999999999999 897.8749999999999 801.8571424804687 897.8749999999999 801.8571424804687 897.8749999999999-33.85714248046884 897.8749999999999-33.85714248046884 897.8749999999999-51.59999999999991 883.5071424804688-66 865.7321424804688-66ZM656.9000000000001 64.91785751953125C656.9000000000001 49.232142480468724 668.9214283203125 36.53571416015632 683.7392858398439 36.53571416015632 683.7392858398439 36.53571416015632 764.2571424804687 36.53571416015632 764.2571424804687 36.53571416015632 779.0749999999998 36.53571416015632 791.0964283203125 49.232142480468724 791.0964283203125 64.91785751953125 791.0964283203125 64.91785751953125 791.0964283203125 121.68214248046877 791.0964283203125 121.68214248046877 791.0964283203125 137.3678575195313 779.0749999999998 150.0964283203125 764.2571424804687 150.0964283203125 764.2571424804687 150.0964283203125 683.7392858398439 150.0964283203125 683.7392858398439 150.0964283203125 668.9214283203125 150.0964283203125 656.9000000000001 137.3678575195313 656.9000000000001 121.68214248046877 656.9000000000001 121.68214248046877 656.9000000000001 64.91785751953125 656.9000000000001 64.91785751953125ZM656.9000000000001 229.77857167968762C656.9000000000001 214.1892858398437 668.9214283203125 201.52499999999998 683.7392858398439 201.52499999999998 683.7392858398439 201.52499999999998 764.2571424804687 201.52499999999998 764.2571424804687 201.52499999999998 779.0749999999998 201.52499999999998 791.0964283203125 214.1892858398437 791.0964283203125 229.77857167968762 791.0964283203125 229.77857167968762 791.0964283203125 286.2857141601562 791.0964283203125 286.2857141601562 791.0964283203125 301.9071424804688 779.0749999999998 314.5392858398437 764.2571424804687 314.5392858398437 764.2571424804687 314.5392858398437 683.7392858398439 314.5392858398437 683.7392858398439 314.5392858398437 668.9214283203125 314.5392858398437 656.9000000000001 301.9071424804688 656.9000000000001 286.2857141601562 656.9000000000001 286.2857141601562 656.9000000000001 229.77857167968762 656.9000000000001 229.77857167968762ZM656.9000000000001 389.04642832031254C656.9000000000001 373.36071416015625 668.9214283203125 360.6321424804687 683.7392858398439 360.6321424804687 683.7392858398439 360.6321424804687 764.2571424804687 360.6321424804687 764.2571424804687 360.6321424804687 779.0749999999998 360.6321424804687 791.0964283203125 373.36071416015625 791.0964283203125 389.04642832031254 791.0964283203125 389.04642832031254 791.0964283203125 445.8107141601563 791.0964283203125 445.8107141601563 791.0964283203125 461.46428583984374 779.0749999999998 474.19285751953123 764.2571424804687 474.19285751953123 764.2571424804687 474.19285751953123 683.7392858398439 474.19285751953123 683.7392858398439 474.19285751953123 668.9214283203125 474.19285751953123 656.9000000000001 461.46428583984374 656.9000000000001 445.8107141601563 656.9000000000001 445.8107141601563 656.9000000000001 389.04642832031254 656.9000000000001 389.04642832031254ZM440.4821424804687 64.91785751953125C440.4821424804687 49.232142480468724 452.5035716796875 36.53571416015632 467.3214283203125 36.53571416015632 467.3214283203125 36.53571416015632 547.8714283203125 36.53571416015632 547.8714283203125 36.53571416015632 562.6892858398437 36.53571416015632 574.7107141601563 49.232142480468724 574.7107141601563 64.91785751953125 574.7107141601563 64.91785751953125 574.7107141601563 121.68214248046877 574.7107141601563 121.68214248046877 574.7107141601563 137.3678575195313 562.6892858398437 150.0964283203125 547.8714283203125 150.0964283203125 547.8714283203125 150.0964283203125 467.3214283203125 150.0964283203125 467.3214283203125 150.0964283203125 452.5035716796875 150.0964283203125 440.4821424804687 137.3678575195313 440.4821424804687 121.68214248046877 440.4821424804687 121.68214248046877 440.4821424804687 64.91785751953125 440.4821424804687 64.91785751953125ZM440.4821424804687 229.77857167968762C440.4821424804687 214.1892858398437 452.5035716796875 201.52499999999998 467.3214283203125 201.52499999999998 467.3214283203125 201.52499999999998 547.8714283203125 201.52499999999998 547.8714283203125 201.52499999999998 562.6892858398437 201.52499999999998 574.7107141601563 214.1892858398437 574.7107141601563 229.77857167968762 574.7107141601563 229.77857167968762 574.7107141601563 286.2857141601562 574.7107141601563 286.2857141601562 574.7107141601563 301.9071424804688 562.6892858398437 314.5392858398437 547.8714283203125 314.5392858398437 547.8714283203125 314.5392858398437 467.3214283203125 314.5392858398437 467.3214283203125 314.5392858398437 452.5035716796875 314.5392858398437 440.4821424804687 301.9071424804688 440.4821424804687 286.2857141601562 440.4821424804687 286.2857141601562 440.4821424804687 229.77857167968762 440.4821424804687 229.77857167968762ZM440.4821424804687 389.04642832031254C440.4821424804687 373.36071416015625 452.5035716796875 360.6321424804687 467.3214283203125 360.6321424804687 467.3214283203125 360.6321424804687 547.8714283203125 360.6321424804687 547.8714283203125 360.6321424804687 562.6892858398437 360.6321424804687 574.7107141601563 373.36071416015625 574.7107141601563 389.04642832031254 574.7107141601563 389.04642832031254 574.7107141601563 445.8107141601563 574.7107141601563 445.8107141601563 574.7107141601563 461.46428583984374 562.6892858398437 474.19285751953123 547.8714283203125 474.19285751953123 547.8714283203125 474.19285751953123 467.3214283203125 474.19285751953123 467.3214283203125 474.19285751953123 452.5035716796875 474.19285751953123 440.4821424804687 461.46428583984374 440.4821424804687 445.8107141601563 440.4821424804687 445.8107141601563 440.4821424804687 389.04642832031254 440.4821424804687 389.04642832031254ZM224.0964283203125 64.91785751953125C224.0964283203125 49.232142480468724 236.1178575195313 36.53571416015632 250.9678575195312 36.53571416015632 250.9678575195312 36.53571416015632 331.48571416015625 36.53571416015632 331.48571416015625 36.53571416015632 346.27142832031257 36.53571416015632 358.325 49.232142480468724 358.325 64.91785751953125 358.325 64.91785751953125 358.325 121.68214248046877 358.325 121.68214248046877 358.325 137.3678575195313 346.3035716796875 150.0964283203125 331.48571416015625 150.0964283203125 331.48571416015625 150.0964283203125 250.9678575195312 150.0964283203125 250.9678575195312 150.0964283203125 236.1178575195313 150.0964283203125 224.0964283203125 137.3678575195313 224.0964283203125 121.68214248046877 224.0964283203125 121.68214248046877 224.0964283203125 64.91785751953125 224.0964283203125 64.91785751953125ZM224.0964283203125 229.77857167968762C224.0964283203125 214.1892858398437 236.1178575195313 201.52499999999998 250.9678575195312 201.52499999999998 250.9678575195312 201.52499999999998 331.48571416015625 201.52499999999998 331.48571416015625 201.52499999999998 346.27142832031257 201.52499999999998 358.325 214.1892858398437 358.325 229.77857167968762 358.325 229.77857167968762 358.325 286.2857141601562 358.325 286.2857141601562 358.325 301.9071424804688 346.3035716796875 314.5392858398437 331.48571416015625 314.5392858398437 331.48571416015625 314.5392858398437 250.9678575195312 314.5392858398437 250.9678575195312 314.5392858398437 236.1178575195313 314.5392858398437 224.0964283203125 301.9071424804688 224.0964283203125 286.2857141601562 224.0964283203125 286.2857141601562 224.0964283203125 229.77857167968762 224.0964283203125 229.77857167968762ZM224.0964283203125 389.04642832031254C224.0964283203125 373.36071416015625 236.1178575195313 360.6321424804687 250.9678575195312 360.6321424804687 250.9678575195312 360.6321424804687 331.48571416015625 360.6321424804687 331.48571416015625 360.6321424804687 346.27142832031257 360.6321424804687 358.325 373.36071416015625 358.325 389.04642832031254 358.325 389.04642832031254 358.325 445.8107141601563 358.325 445.8107141601563 358.325 461.46428583984374 346.3035716796875 474.19285751953123 331.48571416015625 474.19285751953123 331.48571416015625 474.19285751953123 250.9678575195312 474.19285751953123 250.9678575195312 474.19285751953123 236.1178575195313 474.19285751953123 224.0964283203125 461.46428583984374 224.0964283203125 445.8107141601563 224.0964283203125 445.8107141601563 224.0964283203125 389.04642832031254 224.0964283203125 389.04642832031254ZM801.8964283203125 701.3142858398437C801.8964283203125 722.2071424804687 784.7321424804688 739.1464283203125 763.55 739.1464283203125 763.55 739.1464283203125 262.475 739.1464283203125 262.475 739.1464283203125 241.29285751953125 739.1464283203125 224.0964283203125 722.2071424804687 224.0964283203125 701.3142858398437 224.0964283203125 701.3142858398437 224.0964283203125 558.0857141601563 224.0964283203125 558.0857141601563 224.0964283203125 537.1928575195312 241.29285751953125 520.2535716796875 262.475 520.2535716796875 262.475 520.2535716796875 763.55 520.2535716796875 763.55 520.2535716796875 784.7321424804688 520.2535716796875 801.8964283203125 537.1928575195312 801.8964283203125 558.0857141601563 801.8964283203125 558.0857141601563 801.8964283203125 701.3142858398437 801.8964283203125 701.3142858398437Z"  horiz-adv-x="1024" />

    
    <glyph glyph-name="user-syn" unicode="&#58912;" d="M23.674212145883814 86.32235637637791c12.87778327919591 37.24983541212967 40.1124148148549 62.516203820803334 71.06763256791714 84.47474591987063 24.42364672863587 17.322615279502504 50.360752736886965 32.212612928520706 77.28963287595084 45.273846103019665 19.438020411819018 9.426637426235883 38.812978842003226 19.3348296493248 59.456798262488604 25.700151071802143 23.640162997165312 7.28639178988021 34.21336148350031 24.878449004915957 40.62836548514599 46.47964511168603 3.5046524651959188 11.803839570130512 3.023097668342893 24.00132988035008 1.3510305685537713 36.007728513491465-1.232553100329297 8.838069404911074-4.611083173345611 16.701561830183397-10.882769202727657 23.80068283387299-45.97515868514761 52.042375206075-73.09513364346967 113.02218654648775-81.52617447691522 181.653379021943-6.126454469494623 49.86008877232614-0.848454587459143 98.66916232309224 25.505235361656396 142.98754218527094 31.79602898765626 53.469842445460046 80.2955333931197 80.4140108613442 141.39000131086934 84.09638031442182 66.89988585600892 4.03207052141971 123.4749955480645-17.855766243147638 164.12247177200825-73.07602447576187 27.502161454658438-37.358757510955236 36.66317783624864-80.6223028317764 35.579678757784336-126.22100792800902-1.53448046385683-64.65644945715903-24.433200526944784-122.22142283458358-60.091227972094174-175.23455255831976-6.554502654111757-9.74194105004989-12.980974041690128-20.192838035092844-21.696743516399163-27.74293885308495-24.102610197400523-20.890329726333224-20.221502572199576-78.84322250751549-2.4345296470180813-99.32843410782698 4.374128236896665-5.041043374496529 9.482054483915558-8.134846377339352 15.623795659140436-10.303754979711755 50.209788269578205-17.741111236900725 98.65005315538443-39.25249441255304 143.004740907535-69.06306312204997 24.14464942370372-16.229562402729286 45.59297218881124-35.19749226144796 63.16592023613918-58.91218148400077 18.299102704585028-24.700732017034237 19.781988572739753-87.90869305056663-0.19873660103331175-109.48122619131993-15.12695258546715-16.334663610667285-32.783982227581475-27.964607083803646-52.95389020407894-36.319209675327905-39.16267991034531-16.220007033330376-80.53822123699-22.99617948925083-122.27492944681947-28.090729475983256-25.923729747964625-3.1625963208089685-52.013710668968265-4.1753900647733495-78.05782833060115-5.790129661439017-1.7905445680135958-0.11274456080312831-3.9193259606165833 0.4490693688587354-4.913010536873145-1.8593394570697448-5.096460432176202 0-10.191010418908625 0-15.285560405641048 0-7.913178146620658 2.0676298564119646-15.975407172926294 0.4356931085722629-23.95546819206932 0.9554662408409254-19.831672722998075 0-39.66143342946238 0-59.48546279959533 0-9.292871681191153 0-18.591476269803653 0-27.880525489017245 0-55.06165041244032 1.0433702976048926-110.22649001628487 1.0548361124475842-164.05367688295215 15.350532832719631-26.79511596510916 7.118228600307403-53.2328859379211 14.985543487557294-76.54819151296348 30.88451398965232-9.58524524640978 6.5392159483815036-17.399053521423774 14.771518609703728-25.36191581830277 22.99617948925083-9.021519300214132 9.315803310876536-8.345048793215357 21.583998955596037-10.586573175531468 32.99036375256992C23.674212145883814 54.47664323846334 23.674212145883814 70.40045581568756 23.674212145883814 86.32235637637791zM327.22606545464123-63.00566358515084c20.51960904483954-0.0038224619775648824 41.04303898056665-0.007643352865126658 61.56264802540619-0.011465814842691541 0.44142601599360876-0.3172156403477889 0.8847624774309982-0.6344297096055748 1.326188493424607-0.9535557953971446-0.4987535191170633-0.21593532329734905-0.9994190547679106-0.4356931085722629-1.4981725738849743-0.6516284318696121-20.38011039237347 0-40.76213123019072 0-61.14224162256419 0C326.03555472279527-64.29172329771632 325.9533835734526-63.752839426649984 327.22606545464123-63.00566358515084zM388.61672939958703-64.62231362726061c0.04968415025832794 0.5350614090889189 0.10701165338178252 1.072033263621619 0.17198408046036687 1.6051842272667562 7.574941322031266-0.6802929689763408 15.428879948994688 2.5874045597706306 22.7573125362681-1.6051842272667562C403.90228980522807-64.62231362726061 396.26046561067443-64.62231362726061 388.61672939958703-64.62231362726061zM1000.2990353335433 256.44707067114507c0.007643352865126658-9.602442397583815 0.0191091677078182-19.208707257145193 0.02675252057294486-28.811151225819007-1.870803700822434-29.663426704165715-19.997923896037097-47.72175358141423-44.07378000177467-61.38493103752448-29.802925356631782-16.917498724570752-62.72831668212312-24.12936271797347-95.95754738767579-30.058991031878545-29.14174312645327-5.203473656647989-58.58541204534406-8.102359378255057-88.14182709612801-9.826022644836295-4.150547989644185-0.24077739842651302-7.781322847019708-0.7873046223581234-10.051511766442552 4.481139890278446-18.654536680348453 43.32278326938841-51.396478110536734 74.52260088285473-88.88518047564915 101.2527444208853-42.428465422558496 30.2539051709343-88.85078460221105 53.12014137711796-137.24900711953407 72.12628957125229-9.934944743661855 3.9002167929087648-9.965519726212365 4.009138891734329-3.202725101668386 12.669491308763687 44.259140342521505 56.659191286841974 74.35634970981572 119.92256937805402 85.88883689896922 191.0417981127633 11.371967352445813 70.10643341965486 3.074692264045001 137.6063515407413-32.90054925036217 200.1550407895389-12.612163805640233 21.931788007404332-28.302842337303034 41.608675372206086-47.73130737972314 57.88983237063747-6.493354260100738 5.442339038540716-6.558325116089322 9.816467275437383-3.116733061438203 16.883101280042677 26.911682987889844 55.3158040711533 71.81098594743827 84.24734478173058 132.16210205675677 89.90561914356864 94.00457253751074 8.813227329781908 169.40429254493128-52.529662910349366 180.34821171276002-145.85585449541753 9.633017380134325-82.17780290878484-11.297441127058319-156.18636199570224-58.98479726394447-223.15886363165484-2.0275010755525473-2.8434702350173993-4.098953393942075-5.767198031753634-6.64813961829707-8.104271394788844-14.160020529783537-12.975241134268787-17.007311655688497-29.96917652967081-16.90030000230671-47.82303232737467 0.097457855072875-16.28880035129652 6.558325116089322-25.44599584199916 21.931788007404332-30.93993104733199 36.56189909028821-13.068876527364097 72.4931893618584-27.614906015461568 106.40844437271875-46.603857058421845 31.452060826735526-17.60925593729978 61.84737666666969-36.81223185811363 85.2352964505658-65.05010176833808C990.2245919374152 291.0177765758526 998.951827226967 275.36340593416173 1000.2990353335433 256.44707067114507z"  horiz-adv-x="1024" />

    
    <glyph glyph-name="tongbushoucang" unicode="&#59092;" d="M632.4 350.7l109.6 88c13.9 11.2 6.6 33.6-11.2 34.5l-140.4 6.7c-4.1 0.2-7.7 2.8-9.2 6.7L531.5 618c-6.3 16.7-29.9 16.7-36.2 0l-49.8-131.4c-1.5-3.9-5.1-6.5-9.2-6.7l-140.4-6.7c-17.8-0.9-25.1-23.3-11.2-34.5l109.6-88c3.2-2.6 4.6-6.8 3.5-10.8l-37-135.6c-4.7-17.2 14.4-31.1 29.3-21.3l117.5 77c3.4 2.3 7.9 2.3 11.3 0l117.5-77c14.9-9.8 34 4.1 29.3 21.3l-37 135.6C627.8 343.9 629.2 348.1 632.4 350.7zM918.4 394l-26.8-0.5c-3.6 150.4-94.9 286.5-235.9 344.2-150 61.4-323.1 21.2-430.6-100.2-10.5-11.8-9.4-29.9 2.4-40.3 11.7-10.4 29.8-9.4 40.3 2.4 91.3 103.3 238.4 137.5 366.2 85.2 119.8-49.1 197.4-164.6 200.6-292.4l-29.2-0.6c-16.6-0.3-25.5-19.5-15.1-32.4l57.8-71.8c8.2-10.1 23.7-9.9 31.5 0.6l55.1 74C944.6 375.5 934.9 394.3 918.4 394zM796.4 170.8c-11.8 10.5-29.9 9.4-40.3-2.4C664.8 65.1 517.6 30.9 390 83.2c-119.8 49-197.4 164.6-200.6 292.4l29.2 0.6c16.6 0.3 25.5 19.5 15.1 32.4l-57.8 71.8c-8.2 10.1-23.7 9.9-31.5-0.6l-55.1-74c-9.9-13.3-0.2-32.1 16.4-31.8l26.8 0.5c3.6-150.4 94.9-286.5 235.9-344.2 46.8-19.2 95.9-28.5 144.5-28.5 107.2 0.1 212.2 45.2 286 128.7C809.3 142.3 808.3 160.4 796.4 170.8z"  horiz-adv-x="1024" />

    
    <glyph glyph-name="data" unicode="&#58968;" d="M32 6.840000000000032l960 0 0 205.73999999999998L32 212.58000000000004 32 6.840000000000032zM100.57999999999998 144L512 144l0-68.58L100.57999999999998 75.41999999999996 100.57999999999998 144zM32 281.15999999999997l960 0L992 486.84000000000003 32 486.84000000000003 32 281.15999999999997zM100.57999999999998 418.26L512 418.26l0-68.58L100.57999999999998 349.68000000000006 100.57999999999998 418.26zM32 761.16l0-205.73999999999998 960 0L992 761.16 32 761.16zM512 624L100.57999999999998 624 100.57999999999998 692.5799999999999 512 692.5799999999999 512 624z"  horiz-adv-x="1024" />

    
    <glyph glyph-name="upload" unicode="&#58918;" d="M750.106468 152.367479c-23.179932 0-41.986253 18.587334-41.986253 41.526789 0 22.928199 18.806321 41.526789 41.986253 41.526789 69.561285 0 125.957737 55.774281 125.957737 124.580367 0 37.110199-16.487509 70.305229-42.510186 93.145423-2.667759 2.350534-5.468548 4.581342-8.354272 6.702656-0.174985 0.130983-0.37146 0.284479-0.567935 0.415462-2.711761 1.989307-5.511527 3.837398-8.398274 5.619998-0.437975 0.283456-0.896416 0.535189-1.333368 0.819668-2.690272 1.607614-5.445012 3.105734-8.244778 4.51585-0.765433 0.382717-1.553379 0.743944-2.340301 1.115404-2.558265 1.214664-5.182023 2.372024-7.850805 3.433192-1.158383 0.458441-2.339278 0.841158-3.51915 1.267876-2.406816 0.86367-4.810562 1.705851-7.261381 2.427282-1.64036 0.480954-3.302209 0.841158-4.964058 1.257643-2.121314 0.524956-4.242627 1.082658-6.384407 1.49812-2.27481 0.448208-4.592598 0.743944-6.91141 1.048889-1.660826 0.240477-3.302209 0.535189-4.984524 0.700965-4.046153 0.382717-8.179286 0.62217-12.33391 0.62217-1.312902 0-2.579755-0.174985-3.89368-0.196475-1.267876 7.096628-2.885723 14.083763-4.789073 20.916379-0.459464 1.684362-1.092891 3.279696-1.597381 4.952802-1.573845 5.193279-3.170203 10.354835-5.095042 15.384385-0.568958 1.51961-1.290389 2.984984-1.880837 4.494361-2.076288 5.105275-4.220115 10.190083-6.625908 15.110139-0.590448 1.203408-1.2689 2.340301-1.858324 3.510964-2.64627 5.160533-5.380544 10.265808-8.376785 15.198144-41.548278 68.500117-117.166513 114.423029-203.806779 114.423029-86.661755 0-162.258501-45.922912-203.807802-114.423029-2.996241-4.931313-5.729491-10.037611-8.375761-15.198144-0.590448-1.170662-1.267876-2.307555-1.858324-3.510964-2.405793-4.920056-4.548596-10.003841-6.625908-15.110139-0.590448-1.509377-1.311879-2.973728-1.879813-4.494361-1.924839-5.02955-3.521197-10.191106-5.095042-15.384385-0.502443-1.673106-1.136893-3.26844-1.596358-4.952802-1.902326-6.833639-3.520173-13.820774-4.789073-20.916379-1.311879 0.021489-2.579755 0.196475-3.892657 0.196475-4.177136 0-8.287757-0.239454-12.355399-0.62217-1.684362-0.164752-3.302209-0.459464-4.964058-0.700965-2.317789-0.305969-4.6366-0.600681-6.910387-1.048889-2.165316-0.415462-4.264117-0.973164-6.385431-1.49812-1.661849-0.415462-3.323699-0.776689-4.964058-1.257643-2.449795-0.721431-4.854565-1.563612-7.260357-2.427282-1.180895-0.426719-2.361791-0.809435-3.520173-1.267876-2.667759-1.061169-5.29254-2.219551-7.872295-3.433192-0.765433-0.37146-1.552356-0.732687-2.317789-1.115404-2.821255-1.410116-5.554506-2.908236-8.243755-4.51585-0.437975-0.283456-0.896416-0.535189-1.334391-0.819668-2.886747-1.782599-5.685489-3.63069-8.419763-5.619998-0.174985-0.130983-0.37146-0.284479-0.546446-0.415462-2.886747-2.121314-5.685489-4.352121-8.375761-6.702656-26.001187-22.840194-42.488697-56.036247-42.488697-93.145423 0-68.806085 56.397475-124.580367 125.95876-124.580367 23.179932 0 41.986253-18.59859 41.986253-41.526789 0-22.939455-18.806321-41.526789-41.986253-41.526789-115.942639 0-209.930243 92.971461-209.930243 207.633944 0 93.550653 62.563918 172.60208 148.548244 198.570521 46.709835 118.621655 162.804946 202.867384 299.30376 202.867384s252.593925-84.245729 299.326273-202.867384c85.961814-25.968441 148.525732-105.019869 148.525732-198.570521C960.036711 245.33894 866.049107 152.367479 750.106468 152.367479zM355.022271 249.36258l0.065492 0.076748c0.042979 0.044002 0.065492 0.065492 0.086981 0.10847l125.804241 138.237411 0.109494-0.098237c7.697309 8.44023 18.71934 13.852496 31.096229 13.852496s23.39892-5.412266 31.096229-13.852496l0.109494 0.098237 125.804241-138.269134c0.021489-0.021489 0.044002-0.021489 0.044002-0.032746l0.10847-0.12075 0 0c5.861498-6.439666 9.709129-14.684444 10.584056-23.813359 0-0.021489 0-0.042979 0-0.075725 0.132006-1.267876 0.197498-2.559289 0.197498-3.870144l0-0.011256c0-22.939455-18.807345-41.538045-41.986253-41.538045-0.459464 0-0.917906 0.021489-1.355881 0.031722-0.283456 0.011256-0.568958 0.011256-0.853437 0.032746-0.283456 0.011256-0.567935 0.044002-0.873903 0.055259-0.459464 0.044002-0.941442 0.065492-1.399883 0.119727-0.152473 0.021489-0.306992 0.044002-0.458441 0.065492-0.635473 0.076748-1.24741 0.14224-1.858324 0.251733-0.021489 0-0.021489 0-0.021489 0-9.622148 1.552356-18.150382 6.331195-24.38334 13.186324l0-0.011256-52.765761 58.004065 0-210.159464c0-22.928199-18.807345-41.538045-41.986253-41.538045-23.179932 0-41.986253 18.609847-41.986253 41.538045L470.199477 251.789862l-52.766784-58.004065 0 0.011256c-6.231935-6.855128-14.738679-11.633968-24.360827-13.175067-0.021489-0.011256-0.021489-0.011256-0.044002-0.011256-0.611937-0.109494-1.202385-0.174985-1.814322-0.240477-0.174985-0.032746-0.349971-0.055259-0.524956-0.076748-0.436952-0.054235-0.896416-0.075725-1.355881-0.119727-0.305969-0.011256-0.61296-0.044002-0.917906-0.065492-0.26299-0.011256-0.524956-0.011256-0.787946-0.021489-0.480954-0.010233-0.940418-0.031722-1.399883-0.031722-15.942087 0-29.80584 8.7902-36.912701 21.724791-3.236718 5.89322-5.073552 12.628622-5.073552 19.812231C344.240717 232.26211 348.308359 242.003985 355.022271 249.36258L355.022271 249.36258z"  horiz-adv-x="1024" />

    
    <glyph glyph-name="search-slight" unicode="&#58934;" d="M454.9988908246914 80.43595346172856c-195.5270605432098 0-354.5999233580246 159.07286281481484-354.5999233580246 354.5999233580246 0 195.5270605432098 159.07286281481484 354.5999233580246 354.5999233580246 354.5999233580246s354.5999233580246-159.07286281481484 354.5999233580246-354.5999233580246C808.9360105876542 239.50881627654337 650.5259513679014 80.43595346172856 454.9988908246914 80.43595346172856M454.9988908246914 701.482922034568c-147.1423981037037 0-267.10984880987655-119.96745070617283-267.10984880987655-267.10984880987655 0-147.1423981037037 119.96745070617283-267.10984880987655 267.10984880987655-267.10984880987655s267.10984880987655 119.96745070617283 267.10984880987655 267.10984880987655C722.1087396345679 582.1782749234567 602.141288928395 701.482922034568 454.9988908246914 701.482922034568M868.5883341432101-32.90346129382738c-13.918875496296295 0-27.174947397530858 5.302428760493828-37.779804918518515 15.90728628148148l-184.92220302222225 184.92220302222225c-21.20971504197531 21.20971504197531-21.20971504197531 55.01269839012346 0 76.22241343209878 21.20971504197531 21.20971504197531 55.01269839012346 21.20971504197531 76.22241343209878 0l184.92220302222225-184.92220302222225c21.20971504197531-21.20971504197531 21.20971504197531-55.01269839012346 0-76.22241343209878C896.4260851358024-27.601032533333182 882.5072096395061-32.90346129382738 868.5883341432101-32.90346129382738"  horiz-adv-x="1024" />

    
    <glyph glyph-name="bangding1" unicode="&#58895;" d="M773.4 860.8h-522.7c-117 0-211.9-94.9-211.9-211.9v-529.7c0-117 94.9-211.9 211.9-211.9h522.6c117 0 211.9 94.9 211.9 211.9l0 529.7c0 117-94.8 211.9-211.8 211.9zM483 151.8l-31.6-30.6c-28.7-27.8-66.5-41.7-104.2-41.7s-75.5 13.9-104.2 41.7c-27.9 27-43.3 62.9-43.3 101.2s15.4 74.2 43.3 101.2l116.3 112.6c72.3 70 155.3 80 211.6 25.7 15.2-14.7 15.3-38.6 0.2-53.4-15.1-14.8-39.6-14.9-54.8-0.2-33.1 31.9-78.4-2.4-102.5-25.7l-116.3-112.6c-13.1-12.7-20.4-29.6-20.4-47.6s7.2-34.9 20.4-47.6c27.4-26.5 71.9-26.5 99.3 0l31.6 30.6c15.2 14.7 39.7 14.6 54.7-0.2 15.1-14.9 15.1-38.7-0.1-53.4zM781 440.1l-124.1-120.1c-38.3-37.1-78.7-55.9-116.8-55.9-31.2 0-60.9 12.5-87 37.7-15.2 14.7-15.3 38.6-0.2 53.4 15.1 14.8 39.6 14.9 54.7 0.2 11.4-11 38-36.8 94.7 18.2l124.1 120c13.1 12.7 20.4 29.7 20.4 47.7s-7.2 34.9-20.4 47.6c-24.7 23.9-62.6 35.5-91.6 7.5l-39.4-38.1c-15.2-14.7-39.7-14.6-54.7 0.2-15.1 14.8-15 38.7 0.2 53.4l39.4 38.1c55.9 54.1 140.2 50.9 200.6-7.5 27.9-27 43.3-62.9 43.3-101.2 0.1-38.2-15.3-74.2-43.2-101.2z"  horiz-adv-x="1024" />

    
    <glyph glyph-name="user-invite" unicode="&#58896;" d="M711.847307 123.93244700000002c-16.781853 12.177076-46.354752 18.112122-70.504247 27.526332-72.755471 28.549615-107.444789 33.359049-158.506645 100.998101 0 0-26.093734 29.470570999999996 32.847407 101.7144 59.350455 72.448486 64.159888 187.260917 49.21994599999999 275.877286-14.530629 88.718697-98.235235 147.864495-185.419007 147.864495-86.876786 0-170.683721-59.248126-185.419007-147.864495-14.939942-88.718697-7.879284999999999-201.791546 49.21994599999999-275.877286 48.605976-62.82961900000001 10.232837-120.235835-16.167882-140.394524-29.265914-22.512241-41.238333-25.172779-97.31428-49.62926-24.149495-10.437494-61.29469400000001-24.661137-81.760368-40.317378-52.596782-40.112721-32.745078-99.156191-32.745078-99.156191l8.288598 0 284.472869 0 71.425202 0 73.369441 0 284.165884 0 6.651344 0C743.569102 24.776256999999987 756.87179 91.28969700000005 711.847307 123.93244700000002zM993.966623 425.391826l-140.087539 0L853.879085 565.479364c0 10.130509-8.288598 18.419107-18.419107 18.419107l-32.131108 0c-10.130509 0-18.419107-8.288598-18.419107-18.419107l0-140.087539L645.026881 425.391826c-10.130509 0-18.419107-8.288598-18.419107-18.419107l0-32.131108c0-10.130509 8.288598-18.419107 18.419107-18.419107l140.087539 0 0-140.087539c0-10.130509 8.288598-18.419107 18.419107-18.419107l32.131108 0c10.130509 0 18.419107 8.288598 18.419107 18.419107L854.0837410000001 356.52483299999994l140.087539 0c10.130509 0 18.419107 8.288598 18.419107 18.419107l0 32.131108C1012.38573 417.103228 1004.0971320000001 425.391826 993.966623 425.391826z"  horiz-adv-x="1024" />

    
    <glyph glyph-name="user-leave" unicode="&#58946;" d="M911.683 25.898000000000025l-54.507 54.126 52.741 53.144c14.356 14.356 14.667 37.315-0.353 52.335-15.019 15.019-38.833 15.562-53.189 1.206l-53.215-53.047-55.208 54.828c-15.023 15.023-38.028 16.373-52.383 2.019-14.36-14.36-13.816-38.171 1.208-53.194l54.856-55.02-53.875-53.706c-14.352-14.352-13.818-38.167 1.206-53.19 15.02-15.02 38.837-15.558 53.189-1.205l53.506 53.917 54.044-54.198c15.02-15.02 38.837-15.564 53.192-1.209 14.348 14.352 13.808 38.172-1.212 53.192M674.356 227.413c0.195-0.149 0.396-0.291 0.591-0.442v0.218c4.34-1.62 9.051-2.52 13.987-2.52 21.246 0 38.463 16.462 38.463 36.768l-0.349 3.404c0 8.203-2.813 15.78-7.564 21.897l0.405 0.471c-0.692 0.51-1.387 1.018-2.084 1.522-3.882 4.337-8.799 7.799-14.39 10.039-21.051 13.982-43.617 26.023-67.439 35.817 70.934 46.45 117.482 124.432 117.482 212.81 0 142.375-120.777 257.798-269.756 257.798-148.985 0-269.762-115.423-269.762-257.798 0-88.412 46.58-166.417 117.557-212.86-121.388-49.968-210.517-157.86-229.307-287.254-1.392-3.796-2.156-7.882-2.156-12.136l0.29-2.856-0.008-0.112h0.023l0.048-0.451c0-20.296 17.221-36.757 38.463-36.757s38.467 16.458 38.467 36.757l-0.047 0.451h0.691c17.923 140.373 139.233 250.226 288.949 257.928 5.557-0.324 11.149-0.51 16.792-0.51 5.651 0 11.256 0.187 16.82 0.515 58.778-3.019 113.169-21.794 158.653-51.968 4.019-4.688 9.229-8.403 15.18-10.735M483.63 363.187c-106.416 0-192.683 82.447-192.683 184.143s86.267 184.139 192.683 184.139c106.418 0 192.681-82.443 192.681-184.139 0-101.695-86.264-184.143-192.681-184.143z"  horiz-adv-x="1024" />

    
    <glyph glyph-name="cha-rect" unicode="&#58919;" d="M0 896l0-1024 1024 0L1024 896 0 896zM819.2 108.79999999999995c6.4-6.4 6.4-19.2 0-25.6-6.4-6.4-6.4-6.4-12.8-6.4s-12.8 0-12.8 6.4L512 364.79999999999995l-281.6-281.6c-6.4-6.4-6.4-6.4-12.8-6.4-6.4 0-12.8 0-12.8 6.4-6.4 6.4-6.4 19.2 0 25.6l281.6 281.6L204.8 672C192 678.4 192 691.2 204.8 697.6s19.2 6.4 25.6 0L512 416l281.6 281.6c6.4 6.4 19.2 6.4 25.6 0 6.4-6.4 6.4-19.2 0-25.6L537.6 390.4 819.2 108.79999999999995z"  horiz-adv-x="1024" />

    
    <glyph glyph-name="qrcode" unicode="&#58990;" d="M65.444864 830.557184l0-406.20544 406.10304 0L471.547904 830.557184 65.444864 830.557184 65.444864 830.557184zM390.396928 505.52832L146.279424 505.52832l0 243.712 244.117504 0L390.396928 505.52832 390.396928 505.52832zM390.396928 505.52832M227.95776 668.00128l81.118208 0 0-81.23392-81.118208 0L227.95776 668.00128 227.95776 668.00128zM227.95776 668.00128M553.071616 830.557184l0-406.20544 406.107136 0L959.178752 830.557184 553.071616 830.557184 553.071616 830.557184zM878.027776 505.52832L633.904128 505.52832l0 243.712 244.123648 0L878.027776 505.52832 878.027776 505.52832zM878.027776 505.52832M715.588608 668.00128l81.11104 0 0-81.23392-81.11104 0L715.588608 668.00128 715.588608 668.00128zM715.588608 668.00128M65.465344 343.00006399999995l0-406.20544 406.10304 0L471.568384 343.00006399999995 65.465344 343.00006399999995 65.465344 343.00006399999995zM390.412288 17.971199999999953L146.297856 17.971199999999953l0 243.712 244.113408 0L390.411264 17.971199999999953 390.412288 17.971199999999953zM390.412288 17.971199999999953M227.977216 180.44928000000004l81.11616 0 0-81.23904-81.11616 0L227.977216 180.44928000000004 227.977216 180.44928000000004zM227.977216 180.44928000000004M877.89568 342.80960000000005l0-81.23392-81.11616 0 0 81.23392L553.071616 342.80960000000005l0-406.016 81.073152 0L634.144768 99.18463999999994l0 0.034816 0 81.204224 81.117184 0 0-81.204224 243.873792 0L959.135744 342.80960000000005 877.89568 342.80960000000005zM877.89568 342.80960000000005M715.568128 18.107392000000004l81.118208 0 0-81.23904-81.118208 0L715.568128 18.107392000000004 715.568128 18.107392000000004zM715.568128 18.107392000000004M877.89568 18.107392000000004l81.12128 0 0-81.23904-81.12128 0L877.89568 18.107392000000004 877.89568 18.107392000000004zM877.89568 18.107392000000004"  horiz-adv-x="1024" />

    
    <glyph glyph-name="calendar" unicode="&#58989;" d="M175.18286181640627 799.7584993055556l0-0.005396484374999999c0.1483998046875 0.0008991210937500001 0.295899609375 0.005396484374999999 0.44519853515624996 0.005396484374999999L175.18286181640627 799.7584993055556zM231.387555078125 144.71641766493065l168.599689453125 0L399.98724453125 257.11141385633675l-168.599689453125 0L231.387555078125 144.71641766493065zM793.3814237304689 855.948802235243l-56.19480029296875 0 0-168.599689453125 56.19480029296875 0L793.3814237304689 855.948802235243zM287.58235537109374 855.948802235243l-56.19480029296875 0 0-168.599689453125 56.19480029296875 0L287.58235537109374 855.948802235243zM231.387555078125 313.31161063368063l168.599689453125 0L399.98724453125 425.7111033094618l-168.599689453125 0L231.387555078125 313.31161063368063zM849.1409184570313 799.7584993055556c0.1483998046875 0 0.295899609375-0.005396484374999999 0.44519853515624996-0.005396484374999999L849.5861169921875 799.7584993055556 849.1409184570313 799.7584993055556zM680.9864275390624 313.31161063368063l112.39499619140624 0L793.3814237304689 425.7111033094618 680.9864275390624 425.7111033094618 680.9864275390624 313.31161063368063zM849.5861169921875 799.7531028211805l0-84.30614033203125c0-46.54973935546875-37.74740712890625-84.297146484375-84.30254296874999-84.297146484375-46.55513583984376 0-84.297146484375 37.74740712890625-84.297146484375 84.30254296874999L680.9864275390624 799.7584993055556l-337.19937890625 0 0-84.31153681640625c0-46.54973935546875-37.74740712890625-84.297146484375-84.307039453125-84.297146484375-46.55963232421874 0-84.297146484375 37.74740712890625-84.297146484375 84.30254296874999L175.18286181640627 799.7531028211805C113.05928164062499 799.5129662977429 62.78786562500005 749.0886539930555 62.78786562500005 686.913808094618l0-616.7973111328125c0-62.3142509765625 50.51155341796874-113.36004228515624 112.8401947265625-113.36004228515624L849.1409184570313-43.243545323350645c62.3187474609375 0 112.8401947265625 50.51604990234375 112.8401947265625 112.83479824218749L961.9811131835936 686.913808094618C961.9811131835936 749.0886539930555 911.6998033203124 799.5120662977431 849.5861169921875 799.7531028211805zM905.0946822265626 68.21878368055548c0-31.036157226562498-25.158642187499996-56.20469326171875-56.19480029296875-56.20469326171875L174.4966276367188 12.014090418836759c-31.036157226562498 0-56.19480029296875 25.16763603515625-56.19480029296875 56.20469326171875L118.30182734375 480.3490591688368c0 31.036157226562498 25.158642187499996 56.2001958984375 56.19480029296875 56.2001958984375l674.403254296875 0c31.036157226562498 0 56.19480029296875-25.16313955078125 56.19480029296875-56.2001958984375L905.0946822265626 68.21878368055548zM456.18744130859375 313.31161063368063l168.59519208984375 0L624.7826333984376 425.7111033094618 456.18744130859375 425.7111033094618 456.18744130859375 313.31161063368063zM456.18744130859375 144.71641766493065l168.59519208984375 0L624.7826333984376 257.11141385633675 456.18744130859375 257.11141385633675 456.18744130859375 144.71641766493065zM680.9864275390624 144.71641766493065l112.39499619140624 0L793.3814237304689 257.11141385633675 680.9864275390624 257.11141385633675 680.9864275390624 144.71641766493065z"  horiz-adv-x="1024" />

    
    <glyph glyph-name="lizhimoxing" unicode="&#58974;" d="M747.22816-14.41792c-7.2704 0-14.06976 2.83136-19.13856 7.97184-5.03296 4.9152-7.87968 11.8528-7.87968 19.10784 0 7.23456 2.80576 14.02368 7.90016 19.11296l54.81984 54.81984c1.46432 1.46432 1.90464 3.66592 1.11104 5.5808-0.78848 1.91488-2.6624 3.15904-4.73088 3.15904l-185.68192 0c-14.95552 0-27.12064 12.11904-27.12064 27.01312 0 14.95552 12.16512 27.12064 27.12064 27.12064l185.68192 0c2.06848 0 3.9424 1.24416 4.73088 3.15904 0.7936 1.91488 0.35328 4.11648-1.11104 5.5808l-54.81984 54.81984c-5.12512 5.12512-7.95136 11.93472-7.95136 19.16928s2.82624 14.03904 7.95136 19.16416c1.48992 1.48992 2.0992 3.92704 1.24928 5.85728-0.8192 1.87392-2.50368 3.24608-4.5312 3.24608-0.06144 0-32.24576-1.3312-33.09056-1.36192-1.23392 0.00512-2.59584 0.5888-3.56352 1.60768-50.33984 53.04832-106.8032 74.69568-194.87744 74.69568-160.16896 0-290.47808-129.72544-290.47808-289.1776 0-2.67776 0.1792-5.3248 0.36352-7.97184 0.13824-2.01728 0.256-3.74272 0.32768-5.49888 0.06144-1.38752-0.45568-2.7648-1.41824-3.77344-0.95744-0.9984-2.304-1.57696-3.69664-1.57696l-47.8976 0c-2.74944 0-4.99712 2.1504-5.11488 4.89984-0.0768 1.69472-0.18944 3.37408-0.3072 5.0432-0.2048 2.95424-0.40448 5.888-0.40448 8.87296 0 145.61792 88.19712 273.03936 224.68608 324.61824 1.75104 0.66048 3.00032 2.2272 3.26144 4.07552 0.26112 1.85344-0.512 3.70176-2.00704 4.81792C314.4704 421.632 282.27584 485.66784 282.27584 555.43296c0 121.3184 99.06176 220.02176 220.82048 220.02176s220.82048-98.70336 220.82048-220.02176c0-71.84384-35.51744-139.35616-95.00672-180.59264-1.55136-1.0752-2.38592-2.91328-2.17088-4.7872 0.20992-1.87392 1.4336-3.4816 3.17952-4.17792 55.53664-22.23104 88.05888-47.40096 124.28288-96.18432 1.13664-1.53088 1.3312-3.54816 0.512-5.25824-0.60928-1.27488-0.6912-2.80064-0.1792-4.1216 0.512-1.31584 1.52064-2.42176 2.83136-2.94912 3.35872-1.3568 6.38976-3.3792 9.00096-6.02112l109.77792-109.77792c5.09952-5.0944 7.90528-11.88352 7.90528-19.11808 0-7.22944-2.80576-14.01856-7.90528-19.11808l-109.7984-109.7984C761.27744-11.60704 754.49344-14.41792 747.22816-14.41792zM502.99904 717.32224c-89.7024 0-162.67776-72.62208-162.67776-161.87904s72.97536-161.87904 162.67776-161.87904c89.7024 0 162.67776 72.61696 162.67776 161.87904S592.70144 717.32224 502.99904 717.32224z"  horiz-adv-x="1024" />

    
    <glyph glyph-name="user-group" unicode="&#58887;" d="M818.0970666666667 139.13706666666667c0 101.78133333333334-87.34613333333331 215.89866666666666-190.46506666666667 261.99786666666665 50.05333333333333 35.111466666666665 82.77866666666667 93.2416 82.77866666666667 159.02506666666667 0 107.2128-86.91413333333333 194.12586666666667-194.12586666666667 194.12586666666667s-194.12586666666667-86.91413333333333-194.12586666666667-194.12586666666667c0-66.27413333333332 33.218133333333334-124.77973333333331 83.90506666666667-159.80586666666667-101.74933333333334-47.568-186.38506666666666-171.24693333333335-186.38506666666666-258.4277333333333-0.0010666666666666667-162.41066666666666 598.4159999999999-162.41066666666666 598.4159999999999-2.7893333333333334zM860.8426666666667 418.8384c38.96746666666666 27.335466666666665 64.44586666666667 72.59093333333334 64.44586666666667 123.80373333333334 0 83.46773333333334-67.66400000000002 151.13066666666666-151.13066666666666 151.13066666666666-21.230933333333333 0-41.434666666666665-4.386133333333333-59.7664-12.288 26.644266666666667-33.2352 42.59413333333333-75.41653333333333 42.59413333333333-121.32800000000002 0-65.7824-32.7264-123.91359999999997-82.77866666666667-159.02506666666667 103.11893333333335-46.0992 190.46506666666667-160.21653333333333 190.46506666666667-261.99786666666665 0-3.8432000000000004-0.3552-7.592533333333334-1.0314666666666665-11.2512 80.992 11.719466666666667 145.48693333333333 40.747733333333336 145.48693333333333 86.98240000000001 0 79.24053333333333-68.00106666666667 168.08426666666668-148.2816 203.9733333333333zM173.10826666666668 141.92640000000006c0 87.1808 84.63573333333333 210.85973333333334 186.38506666666666 258.4277333333333-50.68693333333333 35.02506666666667-83.90506666666667 93.53066666666666-83.90506666666667 159.80586666666667 0 46.76693333333334 16.5408 89.6704 44.08853333333333 123.184-17.122133333333334 6.733866666666667-35.7696 10.431999999999999-55.28106666666667 10.431999999999999-83.46773333333334 0-151.13066666666666-67.66400000000002-151.13066666666666-151.13066666666666 0-51.59573333333333 25.861333333333334-97.14453333333333 65.32159999999999-124.41173333333332-79.21386666666666-37.03253333333333-145.10506666666666-133.32053333333334-145.10506666666666-201.19253333333333 0-46.16426666666667 62.10666666666666-75.46879999999999 140.96426666666667-88.0288-0.8650666666666668 4.1856-1.3365333333333331 8.4864-1.3365333333333331 12.916266666666667z"  horiz-adv-x="1024" />

    
    <glyph glyph-name="setting-o" unicode="&#58947;" d="M665.492-99.47900000000004c-0.004 0-0.004 0-0.008 0-18.625 0-36.73 7.701-48.422 20.6-15.939 17.471-66.42 62.9-107.738 62.9-41.035 0-92.295-45.689-107.021-61.689-11.666-12.689-29.645-20.26-48.09-20.26-8.787 0-17.078 1.689-24.648 5.02l-1.326 0.57-125.6 70.24-1.246 0.869c-22.865 16.01-31.568 47.32-20.238 72.82 0.084 0.199 11.582 26.73 11.582 50.92 0 73.41-59.723 133.139-133.135 133.139L55.15 235.64999999999998c-0.273-0.01-0.541-0.02-0.811-0.02-21.029 0-38.15 18.689-43.623 47.6-0.436 2.311-10.715 57.15-10.715 100.357 0 43.205 10.277 98.045 10.713 100.357 5.539 29.277 23.035 48.088 44.436 47.58l4.451 0c73.412 0 133.135 59.727 133.135 133.139 0 24.188-11.492 50.709-11.609 50.973-11.314 25.488-2.559 56.791 20.404 72.742l1.303 0.906 132.555 72.807 1.381 0.588c7.459 3.182 15.637 4.797 24.297 4.797 18.402 0 36.42-7.406 48.195-19.816 15.688-16.428 65.277-59.148 105.416-59.148 39.76 0 89.041 41.877 104.68 58.018 11.705 12.154 29.592 19.432 47.822 19.432 8.832 0 17.164-1.67 24.738-4.967l1.344-0.584 128.031-71.129 1.258-0.879c22.906-15.99 31.625-47.295 20.297-72.822-0.09-0.195-11.586-26.725-11.586-50.916 0-73.412 59.727-133.139 133.137-133.139l4.453 0c21.371 0.477 38.887-18.297 44.426-47.578 0.434-2.313 10.719-57.152 10.719-100.359 0-43.197-10.285-98.047-10.719-100.357-5.539-29.279-23.055-48.02-44.43-47.58l-4.449 0c-73.41 0-133.137-59.729-133.137-133.139 0-24.18 11.496-50.701 11.605-50.971 11.309-25.469 2.574-56.77-20.348-72.75l-1.285-0.889-130.188-71.961-1.355-0.58C682.242-97.84799999999996 674.098-99.47900000000004 665.492-99.47900000000004zM661.531-38.148000000000025c0.586-0.381 2.23-1.029 3.957-1.029 0.07 0 0.133 0 0.195 0.01l121.633 67.229c-2.934 6.82-16.363 39.92-16.363 74.451 0 103.26 81.336 187.889 183.305 193.18 1.465 8.1 9.434 53.689 9.434 87.895 0 34.199-7.969 79.768-9.434 87.893-101.965 5.297-183.305 89.922-183.305 193.184 0 34.578 13.469 67.725 16.379 74.49l-119.66 66.482c-0.133 0.008-0.305 0.018-0.492 0.018-2.043 0-3.953-0.746-4.582-1.17-2.008-2.063-19.355-19.652-44.264-37.18-36.881-25.945-71.76-39.1-103.656-39.1-32.215 0-67.369 13.412-104.486 39.871-25.064 17.865-42.492 35.791-44.506 37.893-0.635 0.436-2.563 1.201-4.619 1.201-0.162 0-0.305-0.006-0.428-0.014L236.699 739.08c2.967-6.908 16.35-39.951 16.35-74.416 0-103.262-81.34-187.887-183.305-193.184-1.469-8.109-9.436-53.689-9.436-87.893 0-34.197 7.967-79.768 9.438-87.896 101.965-5.291 183.303-89.92 183.303-193.18 0-34.641-13.52-67.85-16.4-74.529l117.305-65.602c0.076 0 0.164 0 0.26 0 1.717 0 3.338 0.631 3.916 1 2.193 2.361 19.717 20.9 44.949 39.391 37.617 27.57 73.365 41.551 106.248 41.551 33.191 0 69.217-14.24 107.053-42.34C641.754-16.869000000000028 659.348-35.75800000000004 661.531-38.148000000000025zM509.756 206.95100000000002c-97.768 0-177.305 79.539-177.305 177.307 0 97.766 79.537 177.305 177.305 177.305s177.307-79.539 177.307-177.305C687.063 286.49 607.523 206.95100000000002 509.756 206.95100000000002zM509.756 501.256c-64.512 0-116.998-52.486-116.998-116.998 0-64.508 52.486-116.996 116.998-116.996s117.002 52.488 117.002 116.996C626.758 448.77 574.273 501.256 509.756 501.256z"  horiz-adv-x="1024" />

    
    <glyph glyph-name="yunpan" unicode="&#59134;" d="M785.480116 832.615391l-515.920286 0c-105.295138 0-190.655248-85.359087-190.655248-190.655248l0-515.921309c0-105.296161 85.359087-190.655248 190.655248-190.655248l515.920286 0c105.296161 0 190.655248 85.358063 190.655248 190.655248L976.135364 641.961166C976.134341 747.256304 890.776278 832.615391 785.480116 832.615391zM686.475242 226.639043 363.503433 226.639043c-48.322565 0-84.756359 38.789445-84.756359 90.245374 0 43.564191 25.844621 78.407768 63.856353 87.72497 9.580193 46.644343 50.590212 80.82584 98.844216 80.82584 14.266935 0 28.318976-3.022847 41.191144-8.816806 24.267706 40.22412 67.218938 64.74356 114.745371 64.74356 74.061786 0 134.346801-60.524468 134.346801-134.963855 0-3.797489-0.159636-7.596002-0.465604-11.31265 27.592428-16.022928 45.028543-45.812395 45.028543-78.20106C776.292873 267.110803 736.009402 226.639043 686.475242 226.639043z"  horiz-adv-x="1024" />

    
    <glyph glyph-name="edit-rect" unicode="&#58914;" d="M382.06546373367314 256.77372279167173l167.91340415954588 47.67878660202027L430.0410573196411 423.64205703735354 382.06546373367314 256.77372279167173 382.06546373367314 256.77372279167173zM830.5349008560179 583.2886287403106L710.5931846427918 702.4852051448822 446.7270313644409 440.2600778961181l119.93781134605408-119.19345251083374 263.86615250587465 262.22200258255003L830.5349008560179 583.2886287403106zM795.5797257232666 141.87146206855766c0-41.43179786682129-33.5828371810913-75.01385407447813-75.01385407447813-75.01385407447813L270.4249474430084 66.85760799407967c-41.435703506469736 0-75.02947586059571 33.582056207656855-75.02947586059571 75.01385407447813L195.39547158241277 592.0108243274688c0 41.43179786682129 33.58908574104309 75.02557022094726 75.02947586059571 75.02557022094726L570.5116065406798 667.0363945484162l75.02947586059571 75.02166458129882L245.41512215614324 742.0580599021912c-69.05351735115052 0-125.03741028785703-55.98389216423035-125.03741028785703-125.03350464820862l0-500.1590128326415c0-69.05351735115052 55.987797803878784-125.03350464820862 125.03741028785703-125.03350464820862l500.1527642726899 0c69.05664201736451 0 125.04522079467773 55.97998729705811 125.04522079467773 125.03350464820862L870.6131064510345 516.9868168258666l-75.03338072776795-75.02557022094726L795.5797257232666 141.87146206855766l0.0039056396484375 0L795.5797257232666 141.87146206855766zM886.2704133415222 683.4177518749236L811.3135772800446 757.9121952724456c-12.422119417190551 12.343231058120727-33.232136850357065 11.676979608535765-46.48218930244445-1.4863739776611327l-35.97993741989136-35.760456848144536 119.93781134605408-119.18876589775087 35.98306208610534 35.757332954406735C898.023156642914 650.3925984764098 898.6925327587128 671.0784264564513 886.2704133415222 683.4177518749236L886.2704133415222 683.4177518749236 886.2704133415222 683.4177518749236zM886.2704133415222 683.4177518749236"  horiz-adv-x="1024" />

    
    <glyph glyph-name="left-bold" unicode="&#58880;" d="M731.1023396402597 693.187108951807L420.3646602213383 384.30337240397927l310.7208251953125-308.8668823242187L668.4896325439215 13.21142578125 292.8976603597403 386.5618122965098 669.1300850749016 754.78857421875 731.1023396402597 693.187108951807z"  horiz-adv-x="1024" />

    
    <glyph glyph-name="com-info" unicode="&#59052;" d="M841.169463 11.26527933333341L841.169463 751.1197543333333 724.185099 853.0676573333333 334.871325 707.5872853333333 334.871325 671.2005633333333 688.434873 790.3707103333334 688.434873-42.11651166666661 923.8034849999999-42.11651166666661 923.8034849999999 11.26527933333341 841.169463 11.26527933333341 841.169463 11.26527933333341ZM208.169645 239.18422233333354L393.563052 276.2698623333333 393.563052 370.33626133333337 208.169645 321.59414033333337 208.169645 239.18422233333354 208.169645 239.18422233333354ZM208.169645-43.3690386666666L393.563052-43.3690386666666 393.563052 55.32986733333337 208.169645 41.879531333333375 208.169645-43.3690386666666 208.169645-43.3690386666666ZM208.169645 98.35989333333328L393.563052 116.26365833333341 393.563052 210.17451533333337 208.169645 179.00665433333336 208.169645 98.35989333333328 208.169645 98.35989333333328ZM208.169645 382.7254293333334L393.563052 433.74543033333333 393.563052 531.4599153333334 208.169645 468.73738533333335 208.169645 382.7254293333334 208.169645 382.7254293333334ZM599.2005260000001 625.6777633333334L494.509139 689.2823843333333 100.37968699999999 547.1707353333334 100.182188-45.36448566666661 152.099628-45.36448566666661 152.099628 518.5140683333334 446.99089200000003 615.6299203333333 446.99089200000003-42.36824466666667 599.219969-42.36824466666667 599.2005260000001 625.6777633333334 599.2005260000001 625.6777633333334ZM599.2005260000001 625.6777633333334"  horiz-adv-x="1024" />

    
    <glyph glyph-name="disable" unicode="&#59054;" d="M512 793.6c56.32 0 109.568-10.752 159.232-32.256 50.176-21.504 93.184-50.688 130.048-88.064 36.864-37.376 66.048-80.384 87.552-130.048 21.504-49.664 32.256-102.4 32.256-158.72 0-56.832-10.752-110.08-32.256-159.744-21.504-49.664-50.688-93.184-87.552-130.048-36.864-37.376-80.384-66.56-130.048-87.552-50.176-20.992-102.912-31.744-159.232-31.744-56.832 0-110.08 10.752-159.744 31.744-49.664 20.992-93.184 50.688-130.048 87.552-37.376 37.376-66.56 80.384-87.552 130.048-20.992 49.664-31.744 102.912-31.744 159.744 0 56.32 10.752 109.056 31.744 158.72 20.992 49.664 50.688 93.184 87.552 130.048 37.376 37.376 80.384 66.56 130.048 88.064C401.92 782.848 455.168 793.6 512 793.6L512 793.6zM509.44 680.96c-40.448 0-78.848-7.68-114.176-23.04-35.84-15.36-66.56-36.352-93.184-62.976-26.624-26.624-47.616-57.856-62.976-93.184-15.36-35.84-23.04-73.728-23.04-114.176 0-31.232 4.608-60.416 13.312-87.552 8.704-27.136 20.992-52.736 37.376-76.288L673.28 629.76c-23.552 16.384-49.152 28.672-76.8 37.888C568.832 676.352 539.648 680.96 509.44 680.96L509.44 680.96zM509.44 94.20799999999997c39.936 0 77.824 7.68 113.664 23.04 35.84 15.36 66.56 36.352 93.184 62.976 26.624 26.624 47.616 57.856 62.976 93.184 15.36 35.84 23.04 73.728 23.04 114.176 0 58.368-15.36 111.104-46.08 159.232l-406.016-406.016c23.552-14.848 48.64-26.624 74.752-34.816C451.072 98.30399999999997 479.232 94.20799999999997 509.44 94.20799999999997L509.44 94.20799999999997z"  horiz-adv-x="1024" />

    
    <glyph glyph-name="warning" unicode="&#58978;" d="M511.036416-121.97580799999992c-279.975936 0-506.94144 226.96448-506.94144 506.94144 0 279.974912 226.96550399999998 506.939392 506.94144 506.939392 279.974912 0 506.938368-226.96550399999998 506.938368-506.939392C1017.9747840000001 104.98764800000004 791.011328-121.97580799999992 511.036416-121.97580799999992L511.036416-121.97580799999992zM588.570624 631.9616c0 38.805503999999985-39.835648 70.259712-78.678016 70.259712-38.84134399999999 0-77.533184-31.454208-77.533184-70.259712l0-292.998144c0-38.806528 31.455231999999995-70.29759999999999 70.222848-70.29759999999999 38.843392 0 85.989376 31.491072 85.989376 70.29759999999999L588.5716480000001 631.9616 588.570624 631.9616zM512.254976 230.65702399999986c-43.87020799999999 0-79.362048-35.643392-79.362048-79.512576s35.49184-79.399936 79.362048-79.399936c43.869184 0 79.51359999999998 35.529728 79.51359999999998 79.399936S556.123136 230.65702399999986 512.254976 230.65702399999986L512.254976 230.65702399999986z"  horiz-adv-x="1024" />

    
    <glyph glyph-name="home" unicode="&#58906;" d="M827.958-10.831000000000017l-211.583 0c-7.947 0-14.391 6.442-14.391 14.391l0 263.091-179.336 0 0-263.09c0-7.947-6.443-14.391-14.391-14.391l-211.583 0c-7.947 0-14.391 6.442-14.391 14.391l0 401.836-120.884 0c-5.925 0-11.244 3.632-13.403 9.15s-0.712 11.796 3.641 15.814l450.917 416.228c5.512 5.089 14.008 5.089 19.521 0l450.915-416.228c4.355-4.019 5.799-10.296 3.641-15.814-2.156-5.518-7.477-9.15-13.402-9.15l-120.882 0 0-401.837c0-7.947-6.442-14.391-14.39-14.391z"  horiz-adv-x="1024" />

    
    <glyph glyph-name="download-record" unicode="&#58927;" d="M320.84755859375 619.0395833333332h407.239453125v-50.9044921875h-407.239453125v50.9044921875zM319.49140625 516.7296223958334h407.2359375v-50.9044921875h-407.2359375v50.9044921875zM319.49140625 414.9267903645834h407.2359375v-50.9044921875h-407.2359375v50.9044921875zM319.49140625 313.12132161458317h203.621484375v-50.908007812499996h-203.621484375v50.908007812499996zM829.8951171875 772.5836263020833h-610.85302734375c-28.115332031250002 0-50.9044921875-22.7900390625-50.9044921875-50.9044921875v-712.66552734375c0-28.110937500000002 22.7900390625-50.900976562500006 50.9044921875-50.900976562500006h356.33144531249997v50.900976562500006h-356.33144531249997v712.66552734375h610.85390625v-407.239453125h50.900976562500006v407.239453125c-0.0008789062499999999 28.114453125-22.7830078125 50.9044921875-50.90185546875 50.9044921875zM606.2178710937499 44.97581380208328c0 7.51640625 2.9812499999999997 14.589843750000002 8.353125 19.9265625 11.1234375 10.996875000000001 29.17265625 11.07421875 40.373437499999994 0.21093749999999997l79.88906250000001-91.52578125v300.5578125c0 13.035937500000001 6.2015625000000005 28.272656249999997 23.66015625 28.272656249999997 16.832812500000003 0 22.809375000000003-14.589843750000002 22.809375000000003-28.272656249999997v-300.571875l79.88203125000001 91.53984375c11.221875 10.84921875 29.278124999999996 10.778906249999999 40.401562500000004-0.21093749999999997 5.3999999999999995-5.33671875 8.360156250000001-12.410156249999998 8.360156250000001-19.9265625 0-7.5375000000000005-2.98828125-14.625000000000002-8.360156250000001-19.9546875l-100.153125-109.82109375c-10.117968750000001-9.9421875-23.582812500000003-15.405468749999997-37.93359375-15.405468749999997-14.40703125 0-27.9421875 5.51953125-38.067187499999996 15.56015625l-110.84765625000001 109.66640625c-5.3859375 5.3226562500000005-8.367187499999998 12.39609375-8.367187499999998 19.9546875z"  horiz-adv-x="1061" />

    
    <glyph glyph-name="internet" unicode="&#59081;" d="M514.1374999999999-87.33333333333337C263.82500000000005-87.33333333333337 62 114.49166666666667 62 362.66666666666663s201.825 450 450 450l6.525-0.33749999999999997C763.04375 808.8416666666667 962 607.1291666666666 962 362.66666666666663s-198.95625-446.175-443.475-449.66249999999997L514.3062500000001-87.33333333333337 514.1374999999999-87.33333333333337zM540.4062500000001-27.202083333333235l5.062499999999999 1.40625c54.61875 15.018749999999999 101.30625 69.75 131.2875 154.2375l1.5187499999999998 4.33125-4.5 0.8999999999999999c-40.162499999999994 7.875-83.7 12.65625-129.2625 14.175l-4.10625 0.11249999999999999L540.4062500000001-27.202083333333235zM479.43125 147.79166666666663c-43.987500000000004-1.5187499999999998-86.0625-6.01875-125.04374999999999-13.3875l-4.55625-0.8437499999999999 1.5187499999999998-4.387499999999999c29.19375-82.35000000000001 74.30624999999999-136.91250000000002 126.95625000000001-153.675l5.23125-1.6874999999999998 0 174.09375000000003L479.43125 147.79166666666663zM295.775 116.96666666666658c-26.60625-3.9375-46.96874999999999-11.587499999999999-65.53125-20.193749999999998l-5.062499999999999-2.30625 3.825-4.05c31.893749999999997-33.01875 69.07499999999999-60.13125 110.3625-80.38125000000001l13.275-6.525-8.2125 12.318750000000001C325.3625 44.23541666666665 308.99375000000003 78.26666666666677 295.775 116.96666666666658zM732.2750000000001 115.61666666666667c-12.4875-36.28125-28.06875-68.85-46.293749999999996-96.69375l-8.26875-12.6 13.3875 6.862500000000001c38.86874999999999 20.025 73.74374999999999 46.012499999999996 103.725 77.17500000000001l3.825 4.05-5.062499999999999 2.30625c-17.268749999999997 8.04375-36.28125 15.187500000000004-56.475 21.375l-3.6562500000000004 1.125L732.2750000000001 115.61666666666667zM768.8375000000001 329.2541666666666c-1.7999999999999998-54.3375-8.04375-105.24375-18.5625-151.425 30.9375-13.275 57.65624999999999-24.01875 82.18125-36.5625 42.46875 56.3625 65.25 120.76875 70.93124999999999 187.5375l0.39375 4.33125-134.77499999999998 0L768.8375000000001 329.2541666666666zM120.61249999999995 328.8041666666667c5.737499999999999-66.88125000000001 28.51875-131.2875 65.86875-186.24375 30.375000000000007 11.64375 58.50000000000001 22.837500000000002 88.70625000000001 31.893749999999997-7.5375000000000005 50.175000000000004-13.66875 100.6875-15.58125 154.85625000000002L120.21875 333.13541666666663 120.61249999999995 328.8041666666667zM540.4062500000001 208.71041666666667c55.4625-5.625 104.56875-11.025 149.79375-20.1375 14.2875 46.12499999999999 20.025 92.30625 21.768749999999997 140.39999999999998l0.11249999999999999 4.1625L540.4062500000001 333.13541666666663 540.4062500000001 208.71041666666667zM316.475 328.9729166666666c1.85625-48.43125 7.5375000000000005-94.38749999999999 16.9875-136.57500000000002 48.65625 5.625 96.3 10.799999999999999 146.25 12.318750000000001l3.8812500000000005 124.425L316.36250000000007 333.13541666666663 316.475 328.9729166666666zM332.95624999999995 530.6291666666666C323.61875 488.3854166666667 318.10625000000005 442.42916666666673 316.41875 394.05416666666673L316.30625 389.9479166666667l163.18125 0 3.99375 124.425C429.81874999999997 519.8291666666667 382.00625 525.0604166666667 337.625 533.6666666666667L333.79999999999995 534.4541666666667 332.95624999999995 530.6291666666666zM838.53125 581.1979166666667c-29.306250000000002-11.25-56.193749999999994-22.106250000000003-85.05-31.050000000000004 7.593750000000002-50.4 13.66875-101.41874999999999 15.46875-156.26250000000002l134.94375-3.8812500000000005L903.5 394.3354166666667C898.1 461.3854166666667 875.65625 525.9604166666666 838.53125 581.1979166666667zM695.3187499999999 531.5854166666668c-50.0625-6.1875-99.28124999999999-11.7-151.03125-13.21875L540.4062500000001 393.9979166666667l171.7875-3.99375-0.11249999999999999 4.10625C710.39375 442.8229166666667 704.76875 489.00416666666666 695.3187499999999 531.5854166666668zM185.35625 581.1979166666667C148.28749999999997 525.7916666666667 125.84374999999994 461.16041666666666 120.5 394.3354166666667L120.10624999999999 390.00416666666666l135.45 0c5.737499999999999 57.99374999999999 11.75625 108.5625 21.88125 154.18125C244.75625000000002 557.7416666666667 216.46250000000003 569.0479166666667 190.53125 582.4916666666668L187.38125000000002 584.1229166666667 185.35625 581.1979166666667zM540.4062500000001 575.1229166666667l4.10625 0.11249999999999999c45.787499999999994 1.575 89.49374999999999 6.35625 129.99375 14.2875l4.5 0.8999999999999999-1.5187499999999998 4.33125c-29.98125 85.66874999999999-76.89375 141.1875-132.075 156.31875000000002L540.4062500000001 752.4791666666666 540.4062500000001 575.1229166666667zM478.30625 749.7791666666666c-53.26875-16.875-98.60624999999999-72.22500000000001-127.68749999999999-155.75625000000002L349.1 589.5791666666667 353.65625 588.7916666666667c39.99375-7.5375000000000005 82.35000000000001-12.09375 125.71875-13.499999999999998l4.10625-0.11249999999999999L483.48125000000005 751.4104166666666 478.30625 749.7791666666666zM339.36875 715.2416666666667C297.2375 694.5979166666666 259.60625 667.0354166666666 227.54375 633.2291666666667L223.71875 629.2354166666667l5.062499999999999-2.30625C247.7375 618.0979166666667 268.4375 610.2791666666667 290.09374999999994 603.8104166666667c18.225 42.075 34.875 76.78125 54.3375 105.69375l8.325 12.318750000000001L339.36875 715.2416666666667zM686.0375 706.4104166666666c18.50625-28.18125 34.3125-61.42500000000001 46.96874999999999-98.71875 25.7625 3.8812500000000005 45.056250000000006 11.193750000000001 62.15625 19.181250000000002l5.062499999999999 2.30625L796.3999999999999 633.2291666666667c-30.543750000000006 32.11875-65.925 58.612500000000004-105.24375 78.91875l-13.3875 6.862500000000001L686.0375 706.4104166666666z"  horiz-adv-x="1024" />

    
    <glyph glyph-name="fanmishuxingjiegou" unicode="&#58992;" d="M778.865 623.237h195.391c11.139 0 20.23 9.057 20.23 20.092v201.635c0 11.070-9.091 20.161-20.23 20.161l-195.391-0c-11.138 0-20.125-9.091-20.125-20.161v-80.641l-274.193 0c-18.321 0-33.242-14.887-33.242-33.173v-329.711h-141.052v141.157c0 11.104-9.021 20.159-20.159 20.159h-241.299c-11.138 0-20.159-9.055-20.159-20.159v-322.495c0-11.138 9.021-20.159 20.159-20.159h241.263c11.172 0 20.195 9.021 20.195 20.159l-0 141.123h141.052v-329.642c0-18.357 14.921-33.242 33.242-33.242h274.192v-80.572c0-11.173 9.021-20.16 20.125-20.16h195.391c11.139 0 20.23 8.987 20.23 20.16l0 201.532c0 11.139-9.091 20.161-20.23 20.161l-195.39 0c-11.138 0-20.125-9.021-20.125-20.161v-80.605l-267.079-0v322.529h267.079v-80.642c0-11.138 9.021-20.159 20.125-20.159h195.391c11.139 0 20.23 9.021 20.23 20.159v201.568c0 11.068-9.091 20.125-20.23 20.125h-195.391c-11.138-0.035-20.125-9.057-20.125-20.125v-80.711h-267.079v322.565h267.079v-80.675c0-11.034 9.021-20.092 20.125-20.092z"  horiz-adv-x="1024" />

    
    </font>
</defs>
</svg>
